<?xml version="1.0" encoding="UTF-8" standalone="no"?>
<!-- Created with Inkscape (http://www.inkscape.org/) -->

<svg
   xmlns:dc="http://purl.org/dc/elements/1.1/"
   xmlns:cc="http://creativecommons.org/ns#"
   xmlns:rdf="http://www.w3.org/1999/02/22-rdf-syntax-ns#"
   xmlns:svg="http://www.w3.org/2000/svg"
   xmlns="http://www.w3.org/2000/svg"
   xmlns:sodipodi="http://sodipodi.sourceforge.net/DTD/sodipodi-0.dtd"
   xmlns:inkscape="http://www.inkscape.org/namespaces/inkscape"
   width="225.91202"
   height="46.94931"
   id="svg28889"
   version="1.1"
   inkscape:version="0.48.4 r9939"
   sodipodi:docname="New document 3">
  <defs
     id="defs28891" />
  <sodipodi:namedview
     id="base"
     pagecolor="#ffffff"
     bordercolor="#666666"
     borderopacity="1.0"
     inkscape:pageopacity="0.0"
     inkscape:pageshadow="2"
     inkscape:zoom="1.979899"
     inkscape:cx="-13.924074"
     inkscape:cy="-4.6374966"
     inkscape:document-units="px"
     inkscape:current-layer="layer1"
     showgrid="false"
     fit-margin-top="0"
     fit-margin-left="0"
     fit-margin-right="0"
     fit-margin-bottom="0"
     inkscape:window-width="470"
     inkscape:window-height="391"
     inkscape:window-x="1681"
     inkscape:window-y="59"
     inkscape:window-maximized="0" />
  <metadata
     id="metadata28894">
    <rdf:RDF>
      <cc:Work
         rdf:about="">
        <dc:format>image/svg+xml</dc:format>
        <dc:type
           rdf:resource="http://purl.org/dc/dcmitype/StillImage" />
        <dc:title></dc:title>
      </cc:Work>
    </rdf:RDF>
  </metadata>
  <g
     inkscape:label="Layer 1"
     inkscape:groupmode="layer"
     id="layer1"
     transform="translate(-262.04475,-508.88486)">
    <path
       sodipodi:nodetypes="cccccccccccc"
       inkscape:connector-curvature="0"
       id="path6469"
       d="m 473.26132,520.97806 0,0.125 0,19.75 -4.84375,0 -0.125,0 0,0.125 0,7.625 0.25,0 c 0,0 9.96875,-0.013 9.96875,-0.013 l 0,-27.5 -5.125,-0.11197 z"
       style="font-size:medium;font-style:normal;font-variant:normal;font-weight:normal;font-stretch:normal;text-indent:0;text-align:start;text-decoration:none;line-height:normal;letter-spacing:normal;word-spacing:normal;text-transform:none;direction:ltr;block-progression:tb;writing-mode:lr-tb;text-anchor:start;baseline-shift:baseline;color:#000000;fill:#f2f2f2;fill-opacity:1;stroke:none;stroke-width:0.25;marker:none;visibility:visible;display:inline;overflow:visible;enable-background:accumulate;font-family:Sans;-inkscape-font-specification:Sans" />
    <path
       sodipodi:nodetypes="cccccccccccc"
       inkscape:connector-curvature="0"
       id="path6458"
       d="m 409.98007,520.97806 0,0.125 0,11.46875 -4.84375,0 -0.125,0 0,0.125 0,15.875 0.25,0 c -0.25,0.0182 14.75,0.0182 14.75,0.0182 0,0 0,-22.15798 0,-27.61197 l -9.90625,0 z"
       style="font-size:medium;font-style:normal;font-variant:normal;font-weight:normal;font-stretch:normal;text-indent:0;text-align:start;text-decoration:none;line-height:normal;letter-spacing:normal;word-spacing:normal;text-transform:none;direction:ltr;block-progression:tb;writing-mode:lr-tb;text-anchor:start;baseline-shift:baseline;color:#000000;fill:#cccccc;fill-opacity:1;stroke:none;stroke-width:0.25;marker:none;visibility:visible;display:inline;overflow:visible;enable-background:accumulate;font-family:Sans;-inkscape-font-specification:Sans" />
    <path
       sodipodi:nodetypes="cccccccccccccc"
       inkscape:connector-curvature="0"
       id="path6452"
       d="m 341.41756,521.04056 0,0.125 0.125,14.76822 -4.8125,0 -0.125,0 0,0.125 0,9.78125 -2.375,0 -2.59375,-0.0495 -0.125,2.7995 c -0.81219,0.0913 30,0 30,0 l 0,-27.49999 -19.96875,-0.0495 z"
       style="font-size:medium;font-style:normal;font-variant:normal;font-weight:normal;font-stretch:normal;text-indent:0;text-align:start;text-decoration:none;line-height:normal;letter-spacing:normal;word-spacing:normal;text-transform:none;direction:ltr;block-progression:tb;writing-mode:lr-tb;text-anchor:start;baseline-shift:baseline;color:#000000;fill:#f2f2f2;fill-opacity:1;stroke:none;stroke-width:0.25;marker:none;visibility:visible;display:inline;overflow:visible;enable-background:accumulate;font-family:Sans;-inkscape-font-specification:Sans" />
    <path
       sodipodi:nodetypes="cccccccccccccccccccccccccc"
       inkscape:connector-curvature="0"
       id="path5925"
       d="m 295.85395,520.97806 0,0.125 0,7.375 -4.875,0 -0.125,0 0,0.125 0,6.125 -4.875,0 -0.125,0 0,0.125 0,4.875 -4.875,0 -0.125,0 0,0.125 0,3.625 -4.875,0 -0.125,0 0,0.125 0,2.375 -2.375,0 -2.5,0 0,2.61197 c 0,-0.13803 30,0 30,0 l 0,-27.61197 -5,0 z"
       style="font-size:medium;font-style:normal;font-variant:normal;font-weight:normal;font-stretch:normal;text-indent:0;text-align:start;text-decoration:none;line-height:normal;letter-spacing:normal;word-spacing:normal;text-transform:none;direction:ltr;block-progression:tb;writing-mode:lr-tb;text-anchor:start;baseline-shift:baseline;color:#000000;fill:#f2f2f2;fill-opacity:1;stroke:#e6e6e6;stroke-width:0;stroke-miterlimit:4;stroke-dasharray:none;marker:none;visibility:visible;display:inline;overflow:visible;enable-background:accumulate;font-family:Sans;-inkscape-font-specification:Sans" />
    <g
       transform="translate(-270.98868,143.66746)"
       id="g5937">
      <g
         transform="translate(-0.17534144,-0.03049416)"
         id="g5939">
        <g
           id="g5941"
           inkscape:transform-center-y="-36.059407"
           transform="matrix(1.5,0,0,1.5,-775.40756,1123.2098)"
           inkscape:transform-center-x="5.1999821e-05">
          <path
             inkscape:connector-curvature="0"
             id="path5943"
             d="m 918.72407,-503.8936 1.1739,2.0716"
             style="fill:none;stroke:#000000;stroke-width:0.25;stroke-linecap:butt;stroke-linejoin:miter;stroke-miterlimit:4;stroke-opacity:1;stroke-dasharray:none" />
          <path
             inkscape:connector-curvature="0"
             id="path5945"
             d="m 918.73356,-503.86432 -1.2084,2.0716"
             style="fill:none;stroke:#000000;stroke-width:0.25;stroke-linecap:butt;stroke-linejoin:miter;stroke-miterlimit:4;stroke-opacity:1;stroke-dasharray:none" />
        </g>
        <path
           inkscape:connector-curvature="0"
           id="path5947"
           d="m 602.69424,367.40126 0,37.49999"
           style="fill:none;stroke:#000000;stroke-width:0.375;stroke-linecap:round;stroke-linejoin:miter;stroke-miterlimit:4;stroke-opacity:1;stroke-dasharray:none"
           inkscape:transform-center-x="-0.041068"
           inkscape:transform-center-y="-18.937504" />
      </g>
    </g>
    <g
       id="g5949"
       transform="matrix(0,1,-1,0,736.40482,-53.979644)"
       inkscape:transform-center-x="-18.953423">
      <g
         id="g5951"
         transform="translate(-0.17534144,-0.03049416)">
        <g
           inkscape:transform-center-x="5.1999821e-05"
           transform="matrix(1.5,0,0,1.5,-775.40756,1123.2098)"
           inkscape:transform-center-y="-36.059407"
           id="g5953">
          <path
             style="fill:none;stroke:#000000;stroke-width:0.25;stroke-linecap:butt;stroke-linejoin:miter;stroke-miterlimit:4;stroke-opacity:1;stroke-dasharray:none"
             d="m 918.72407,-503.8936 1.1739,2.0716"
             id="path5955"
             inkscape:connector-curvature="0" />
          <path
             style="fill:none;stroke:#000000;stroke-width:0.25;stroke-linecap:butt;stroke-linejoin:miter;stroke-miterlimit:4;stroke-opacity:1;stroke-dasharray:none"
             d="m 918.73356,-503.86432 -1.2084,2.0716"
             id="path5957"
             inkscape:connector-curvature="0" />
        </g>
        <path
           inkscape:transform-center-y="-18.937504"
           inkscape:transform-center-x="-0.041068"
           style="fill:none;stroke:#000000;stroke-width:0.375;stroke-linecap:round;stroke-linejoin:miter;stroke-miterlimit:4;stroke-opacity:1;stroke-dasharray:none"
           d="m 602.69424,367.40126 0,37.49999"
           id="path5959"
           inkscape:connector-curvature="0" />
      </g>
    </g>
    <path
       style="fill:none;stroke:#000000;stroke-width:0.25;stroke-linecap:butt;stroke-linejoin:miter;stroke-miterlimit:4;stroke-opacity:1;stroke-dasharray:none"
       d="m 331.63406,545.90676 2.47954,0 2.47954,0 0,-9.90176 4.95909,0 0,-14.85265 19.83633,-1.2e-4"
       id="path5961"
       inkscape:connector-curvature="0"
       sodipodi:nodetypes="ccccccc" />
    <path
       inkscape:connector-curvature="0"
       id="path6003"
       d="m 331.51131,521.02951 -1.25,0"
       style="fill:none;stroke:#000000;stroke-width:0.375;stroke-linecap:butt;stroke-linejoin:miter;stroke-miterlimit:4;stroke-opacity:1;stroke-dasharray:none" />
    <g
       id="g6270"
       transform="translate(-212.48868,143.66746)">
      <g
         id="g6272"
         transform="translate(-0.17534144,-0.03049416)">
        <g
           inkscape:transform-center-x="5.1999821e-05"
           transform="matrix(1.5,0,0,1.5,-775.40756,1123.2098)"
           inkscape:transform-center-y="-36.059407"
           id="g6274">
          <path
             style="fill:none;stroke:#000000;stroke-width:0.25;stroke-linecap:butt;stroke-linejoin:miter;stroke-miterlimit:4;stroke-opacity:1;stroke-dasharray:none"
             d="m 918.72407,-503.8936 1.1739,2.0716"
             id="path6276"
             inkscape:connector-curvature="0" />
          <path
             style="fill:none;stroke:#000000;stroke-width:0.25;stroke-linecap:butt;stroke-linejoin:miter;stroke-miterlimit:4;stroke-opacity:1;stroke-dasharray:none"
             d="m 918.73356,-503.86432 -1.2084,2.0716"
             id="path6279"
             inkscape:connector-curvature="0" />
        </g>
        <path
           inkscape:transform-center-y="-18.937504"
           inkscape:transform-center-x="-0.041068"
           style="fill:none;stroke:#000000;stroke-width:0.375;stroke-linecap:round;stroke-linejoin:miter;stroke-miterlimit:4;stroke-opacity:1;stroke-dasharray:none"
           d="m 602.69424,367.40126 0,37.49999"
           id="path6285"
           inkscape:connector-curvature="0" />
      </g>
    </g>
    <g
       inkscape:transform-center-x="-18.953423"
       transform="matrix(0,1,-1,0,794.90482,-53.979644)"
       id="g6287">
      <g
         transform="translate(-0.17534144,-0.03049416)"
         id="g6289">
        <g
           id="g6291"
           inkscape:transform-center-y="-36.059407"
           transform="matrix(1.5,0,0,1.5,-775.40756,1123.2098)"
           inkscape:transform-center-x="5.1999821e-05">
          <path
             inkscape:connector-curvature="0"
             id="path6293"
             d="m 918.72407,-503.8936 1.1739,2.0716"
             style="fill:none;stroke:#000000;stroke-width:0.25;stroke-linecap:butt;stroke-linejoin:miter;stroke-miterlimit:4;stroke-opacity:1;stroke-dasharray:none" />
          <path
             inkscape:connector-curvature="0"
             id="path6295"
             d="m 918.73356,-503.86432 -1.2084,2.0716"
             style="fill:none;stroke:#000000;stroke-width:0.25;stroke-linecap:butt;stroke-linejoin:miter;stroke-miterlimit:4;stroke-opacity:1;stroke-dasharray:none" />
        </g>
        <path
           inkscape:connector-curvature="0"
           id="path6297"
           d="m 602.69424,367.40126 0,37.49999"
           style="fill:none;stroke:#000000;stroke-width:0.375;stroke-linecap:round;stroke-linejoin:miter;stroke-miterlimit:4;stroke-opacity:1;stroke-dasharray:none"
           inkscape:transform-center-x="-0.041068"
           inkscape:transform-center-y="-18.937504" />
      </g>
    </g>
    <path
       style="fill:none;stroke:#000000;stroke-width:0.375;stroke-linecap:butt;stroke-linejoin:miter;stroke-miterlimit:4;stroke-opacity:1;stroke-dasharray:none"
       d="m 390.01132,521.02951 -1.25,0"
       id="path6301"
       inkscape:connector-curvature="0" />
    <path
       style="fill:none;stroke:#000000;stroke-width:0.25;stroke-linecap:butt;stroke-linejoin:miter;stroke-miterlimit:4;stroke-opacity:1;stroke-dasharray:none"
       d="m 405.14478,548.56141 0,-15.86118 4.9649,0 0,-11.6102 9.90164,0"
       id="path6309"
       inkscape:connector-curvature="0"
       sodipodi:nodetypes="ccccc" />
    <g
       transform="translate(-153.98868,143.66746)"
       id="g6321">
      <g
         transform="translate(-0.17534144,-0.03049416)"
         id="g6323">
        <g
           id="g6325"
           inkscape:transform-center-y="-36.059407"
           transform="matrix(1.5,0,0,1.5,-775.40756,1123.2098)"
           inkscape:transform-center-x="5.1999821e-05">
          <path
             inkscape:connector-curvature="0"
             id="path6327"
             d="m 918.72407,-503.8936 1.1739,2.0716"
             style="fill:none;stroke:#000000;stroke-width:0.25;stroke-linecap:butt;stroke-linejoin:miter;stroke-miterlimit:4;stroke-opacity:1;stroke-dasharray:none" />
          <path
             inkscape:connector-curvature="0"
             id="path6329"
             d="m 918.73356,-503.86432 -1.2084,2.0716"
             style="fill:none;stroke:#000000;stroke-width:0.25;stroke-linecap:butt;stroke-linejoin:miter;stroke-miterlimit:4;stroke-opacity:1;stroke-dasharray:none" />
        </g>
        <path
           inkscape:connector-curvature="0"
           id="path6331"
           d="m 602.69424,367.40126 0,37.49999"
           style="fill:none;stroke:#000000;stroke-width:0.375;stroke-linecap:round;stroke-linejoin:miter;stroke-miterlimit:4;stroke-opacity:1;stroke-dasharray:none"
           inkscape:transform-center-x="-0.041068"
           inkscape:transform-center-y="-18.937504" />
      </g>
    </g>
    <g
       id="g6333"
       transform="matrix(0,1,-1,0,853.40482,-53.979644)"
       inkscape:transform-center-x="-18.953423">
      <g
         id="g6335"
         transform="translate(-0.17534144,-0.03049416)">
        <g
           inkscape:transform-center-x="5.1999821e-05"
           transform="matrix(1.5,0,0,1.5,-775.40756,1123.2098)"
           inkscape:transform-center-y="-36.059407"
           id="g6337">
          <path
             style="fill:none;stroke:#000000;stroke-width:0.25;stroke-linecap:butt;stroke-linejoin:miter;stroke-miterlimit:4;stroke-opacity:1;stroke-dasharray:none"
             d="m 918.72407,-503.8936 1.1739,2.0716"
             id="path6339"
             inkscape:connector-curvature="0" />
          <path
             style="fill:none;stroke:#000000;stroke-width:0.25;stroke-linecap:butt;stroke-linejoin:miter;stroke-miterlimit:4;stroke-opacity:1;stroke-dasharray:none"
             d="m 918.73356,-503.86432 -1.2084,2.0716"
             id="path6341"
             inkscape:connector-curvature="0" />
        </g>
        <path
           inkscape:transform-center-y="-18.937504"
           inkscape:transform-center-x="-0.041068"
           style="fill:none;stroke:#000000;stroke-width:0.375;stroke-linecap:round;stroke-linejoin:miter;stroke-miterlimit:4;stroke-opacity:1;stroke-dasharray:none"
           d="m 602.69424,367.40126 0,37.49999"
           id="path6343"
           inkscape:connector-curvature="0" />
      </g>
    </g>
    <path
       inkscape:connector-curvature="0"
       id="path6345"
       d="m 448.51132,521.02951 -1.25,0"
       style="fill:none;stroke:#000000;stroke-width:0.375;stroke-linecap:butt;stroke-linejoin:miter;stroke-miterlimit:4;stroke-opacity:1;stroke-dasharray:none" />
    <path
       style="fill:none;stroke:#000000;stroke-width:0.25;stroke-linecap:butt;stroke-linejoin:miter;stroke-miterlimit:4;stroke-opacity:1;stroke-dasharray:none"
       d="m 468.42282,548.59003 0,-7.60002 4.97401,0 0,-19.88444 4.97398,0"
       id="path6355"
       inkscape:connector-curvature="0"
       sodipodi:nodetypes="ccccc" />
    <text
       sodipodi:linespacing="125%"
       id="text6366"
       y="533.72357"
       x="313.76639"
       style="font-size:10.41965961px;font-style:normal;font-variant:normal;font-weight:normal;font-stretch:normal;line-height:125%;letter-spacing:0px;word-spacing:0px;fill:#000000;fill-opacity:1;stroke:none;font-family:DejaVu Sans Mono;-inkscape-font-specification:DejaVu Sans Mono"
       xml:space="preserve"><tspan
         y="533.72357"
         x="313.76639"
         id="tspan6368"
         sodipodi:role="line">=</tspan></text>
    <text
       xml:space="preserve"
       style="font-size:10.41965961px;font-style:normal;font-variant:normal;font-weight:normal;font-stretch:normal;line-height:125%;letter-spacing:0px;word-spacing:0px;fill:#000000;fill-opacity:1;stroke:none;font-family:DejaVu Sans Mono;-inkscape-font-specification:DejaVu Sans Mono"
       x="373.60568"
       y="533.72357"
       id="text6377"
       sodipodi:linespacing="125%"><tspan
         sodipodi:role="line"
         id="tspan6379"
         x="373.60568"
         y="533.72357">+</tspan></text>
    <text
       sodipodi:linespacing="125%"
       id="text6381"
       y="533.72357"
       x="431.93332"
       style="font-size:10.41965961px;font-style:normal;font-variant:normal;font-weight:normal;font-stretch:normal;line-height:125%;letter-spacing:0px;word-spacing:0px;fill:#000000;fill-opacity:1;stroke:none;font-family:DejaVu Sans Mono;-inkscape-font-specification:DejaVu Sans Mono"
       xml:space="preserve"><tspan
         y="533.72357"
         x="431.93332"
         id="tspan6383"
         sodipodi:role="line">+</tspan></text>
    <path
       style="font-size:medium;font-style:normal;font-variant:normal;font-weight:normal;font-stretch:normal;text-indent:0;text-align:start;text-decoration:none;line-height:normal;letter-spacing:normal;word-spacing:normal;text-transform:none;direction:ltr;block-progression:tb;writing-mode:lr-tb;text-anchor:start;baseline-shift:baseline;color:#000000;fill:#f2f2f2;fill-opacity:1;stroke:none;stroke-width:0;marker:none;visibility:visible;display:inline;overflow:visible;enable-background:accumulate;font-family:Sans;-inkscape-font-specification:Sans"
       d="m 285.85395,539.72806 -4.875,0 -0.125,0 0,0.125 0,3.625 -4.875,0 -0.125,0 0,0.125 0,2.375 -2.375,0 -2.5,0 0,2.61197 c 0,-0.13803 30,0 30,0 l 0,-8.75 c 0,0 -15,0 -15.125,-0.11197 z"
       id="path6408"
       inkscape:connector-curvature="0"
       sodipodi:nodetypes="ccccccccccccccc" />
    <path
       style="font-size:medium;font-style:normal;font-variant:normal;font-weight:normal;font-stretch:normal;text-indent:0;text-align:start;text-decoration:none;line-height:normal;letter-spacing:normal;word-spacing:normal;text-transform:none;direction:ltr;block-progression:tb;writing-mode:lr-tb;text-anchor:start;baseline-shift:baseline;color:#000000;fill:#cccccc;fill-opacity:1;stroke:none;stroke-width:0;marker:none;visibility:visible;display:inline;overflow:visible;enable-background:accumulate;font-family:Sans;-inkscape-font-specification:Sans"
       d="m 290.97895,531.09003 -0.125,3.63803 -4.875,0 -0.125,0 0,0.125 0.0312,5 c 0.125,0.11197 15.09375,-0.013 15.09375,-0.013 l 0,-8.75 z"
       id="path6410"
       inkscape:connector-curvature="0"
       sodipodi:nodetypes="ccccccccc" />
    <path
       style="fill:none;stroke:#000000;stroke-width:0.25;stroke-linecap:butt;stroke-linejoin:miter;stroke-miterlimit:4;stroke-opacity:1;stroke-dasharray:none"
       d="m 270.97895,546.09006 2.5,0 2.5,0 0,-2.5 5,0 0,-3.75 5,0 0,-5 5,0 0,-6.25 5,-3e-5 0,-7.5 5,0"
       id="path6402"
       inkscape:connector-curvature="0"
       sodipodi:nodetypes="ccccccccccccc" />
    <path
       inkscape:connector-curvature="0"
       id="path6357"
       d="m 285.97895,539.84006 15,0 0,0"
       style="fill:none;stroke:#000000;stroke-width:0.125;stroke-linecap:butt;stroke-linejoin:miter;stroke-miterlimit:4;stroke-opacity:1;stroke-dasharray:0.125, 0.125;stroke-dashoffset:0" />
    <path
       sodipodi:nodetypes="ccc"
       inkscape:connector-curvature="0"
       id="path6364"
       d="m 290.97895,531.08961 10,0 0,0"
       style="fill:none;stroke:#000000;stroke-width:0.125;stroke-linecap:butt;stroke-linejoin:miter;stroke-miterlimit:4;stroke-opacity:1;stroke-dasharray:0.125, 0.125;stroke-dashoffset:0" />
    <g
       inkscape:transform-center-x="-18.953423"
       transform="matrix(0,1,-1,0,675.87322,-53.919094)"
       id="g5911">
      <g
         transform="translate(-0.17534144,-0.03049416)"
         id="g5913">
        <g
           id="g5915"
           inkscape:transform-center-y="-36.059407"
           transform="matrix(1.5,0,0,1.5,-775.40756,1123.2098)"
           inkscape:transform-center-x="5.1999821e-05">
          <path
             inkscape:connector-curvature="0"
             id="path5917"
             d="m 918.72407,-503.8936 1.1739,2.0716"
             style="fill:none;stroke:#000000;stroke-width:0.25;stroke-linecap:butt;stroke-linejoin:miter;stroke-miterlimit:4;stroke-opacity:1;stroke-dasharray:none" />
          <path
             inkscape:connector-curvature="0"
             id="path5919"
             d="m 918.73356,-503.86432 -1.2084,2.0716"
             style="fill:none;stroke:#000000;stroke-width:0.25;stroke-linecap:butt;stroke-linejoin:miter;stroke-miterlimit:4;stroke-opacity:1;stroke-dasharray:none" />
        </g>
        <path
           inkscape:connector-curvature="0"
           id="path5921"
           d="m 602.69424,367.40126 0,37.49999"
           style="fill:none;stroke:#000000;stroke-width:0.375;stroke-linecap:round;stroke-linejoin:miter;stroke-miterlimit:4;stroke-opacity:1;stroke-dasharray:none"
           inkscape:transform-center-x="-0.041068"
           inkscape:transform-center-y="-18.937504" />
      </g>
    </g>
    <g
       transform="translate(-331.52117,143.72806)"
       id="g5904">
      <g
         id="g5094"
         transform="translate(-0.17534144,-0.03049416)">
        <g
           inkscape:transform-center-x="5.1999821e-05"
           transform="matrix(1.5,0,0,1.5,-775.40756,1123.2098)"
           inkscape:transform-center-y="-36.059407"
           id="g5084">
          <path
             style="fill:none;stroke:#000000;stroke-width:0.25;stroke-linecap:butt;stroke-linejoin:miter;stroke-miterlimit:4;stroke-opacity:1;stroke-dasharray:none"
             d="m 918.72407,-503.8936 1.1739,2.0716"
             id="path5086"
             inkscape:connector-curvature="0" />
          <path
             style="fill:none;stroke:#000000;stroke-width:0.25;stroke-linecap:butt;stroke-linejoin:miter;stroke-miterlimit:4;stroke-opacity:1;stroke-dasharray:none"
             d="m 918.73356,-503.86432 -1.2084,2.0716"
             id="path5088"
             inkscape:connector-curvature="0" />
        </g>
        <path
           inkscape:transform-center-y="-18.937504"
           inkscape:transform-center-x="-0.041068"
           style="fill:none;stroke:#000000;stroke-width:0.375;stroke-linecap:round;stroke-linejoin:miter;stroke-miterlimit:4;stroke-opacity:1;stroke-dasharray:none"
           d="m 602.69424,367.40126 0,37.49999"
           id="path5090"
           inkscape:connector-curvature="0" />
      </g>
    </g>
    <g
       id="g5602"
       transform="matrix(0.11462786,0,0,0.11462786,409.48474,512.39836)">
      <g
         id="content"
         transform="matrix(1.0629921,0,0,-1.0629921,-186.02362,789.27165)"
         xml:space="preserve"
         stroke-miterlimit="10.433"
         font-style="normal"
         font-variant="normal"
         font-weight="normal"
         font-stretch="normal"
         font-size-adjust="none"
         letter-spacing="normal"
         word-spacing="normal"
         style="font-style:normal;font-variant:normal;font-weight:normal;font-stretch:normal;letter-spacing:normal;word-spacing:normal;text-anchor:start;fill:none;stroke:#000000;stroke-linecap:butt;stroke-linejoin:miter;stroke-miterlimit:10.43299961;stroke-opacity:1;stroke-dasharray:none;stroke-dashoffset:0"><path
           d="m 474.4444,428.71046 0,0.45813 -0.006,0.46433 -0.0124,0.46433 -0.0248,0.45814 -0.0248,0.46432 -0.0371,0.45814 -0.0495,0.45814 -0.0557,0.45194 -0.0743,0.45195 -0.0867,0.45195 -0.0991,0.44575 -0.11763,0.44576 -0.13001,0.44575 -0.15478,0.43337 -0.17335,0.43338 -0.0929,0.21668 -0.0991,0.2105 c -1.41155,2.9717 -3.94369,3.46698 -5.24381,3.46698 -1.84493,0 -4.09847,-0.80484 -5.36763,-3.67748 -0.98437,-2.12971 -1.13915,-4.53803 -1.13915,-7.00206 0,-2.31545 0.12382,-5.08904 1.39298,-7.42925 1.32489,-2.49499 3.57842,-3.11409 5.08904,-3.11409 v 0.67482 c -1.20106,0 -3.02742,0.77388 -3.58461,3.7332 -0.33432,1.84493 -0.33432,4.68042 -0.33432,6.51297 0,1.96875 0,3.99941 0.24764,5.6648 0.58196,3.67748 2.89741,3.94988 3.67129,3.94988 1.01533,0 3.05218,-0.551 3.63414,-3.60937 0.30955,-1.72111 0.30955,-4.07371 0.30955,-6.00531 0,-2.32164 0,-4.41421 -0.34051,-6.38915 -0.46433,-2.92836 -2.22258,-3.85702 -3.60318,-3.85702 h 0 v -0.67482 c 1.6592,0 3.99941,0.64387 5.36763,3.57842 0.98437,2.12352 1.13915,4.52565 1.13915,6.96492 z"
           id="path5605"
           inkscape:connector-curvature="0"
           style="fill:#000000;stroke-width:0" /><path
           style="fill:#000000;stroke-width:0"
           inkscape:connector-curvature="0"
           id="path19443"
           d="m 474.4444,428.71046 0,0.45813 -0.006,0.46433 -0.0124,0.46433 -0.0248,0.45814 -0.0248,0.46432 -0.0371,0.45814 -0.0495,0.45814 -0.0557,0.45194 -0.0743,0.45195 -0.0867,0.45195 -0.0991,0.44575 -0.11763,0.44576 -0.13001,0.44575 -0.15478,0.43337 -0.17335,0.43338 -0.0929,0.21668 -0.0991,0.2105 c -1.41155,2.9717 -3.94369,3.46698 -5.24381,3.46698 -1.84493,0 -4.09847,-0.80484 -5.36763,-3.67748 -0.98437,-2.12971 -1.13915,-4.53803 -1.13915,-7.00206 0,-2.31545 0.12382,-5.08904 1.39298,-7.42925 1.32489,-2.49499 3.57842,-3.11409 5.08904,-3.11409 v 0.67482 c -1.20106,0 -3.02742,0.77388 -3.58461,3.7332 -0.33432,1.84493 -0.33432,4.68042 -0.33432,6.51297 0,1.96875 0,3.99941 0.24764,5.6648 0.58196,3.67748 2.89741,3.94988 3.67129,3.94988 1.01533,0 3.05218,-0.551 3.63414,-3.60937 0.30955,-1.72111 0.30955,-4.07371 0.30955,-6.00531 0,-2.32164 0,-4.41421 -0.34051,-6.38915 -0.46433,-2.92836 -2.22258,-3.85702 -3.60318,-3.85702 h 0 v -0.67482 c 1.6592,0 3.99941,0.64387 5.36763,3.57842 0.98437,2.12352 1.13915,4.52565 1.13915,6.96492 z" /></g>    </g>
    <g
       transform="matrix(0.02845356,0,0,0.02845356,279.99328,516.28266)"
       id="g19417">
      <g
         style="font-style:normal;font-variant:normal;font-weight:normal;font-stretch:normal;letter-spacing:normal;word-spacing:normal;text-anchor:start;fill:none;stroke:#000000;stroke-linecap:butt;stroke-linejoin:miter;stroke-miterlimit:10.43299961;stroke-opacity:1;stroke-dasharray:none;stroke-dashoffset:0"
         id="g19419"
         transform="matrix(2.1259843,0,0,-2.1259843,-372.04725,1578.5433)"
         xml:space="preserve"
         stroke-miterlimit="10.433"
         font-style="normal"
         font-variant="normal"
         font-weight="normal"
         font-stretch="normal"
         font-size-adjust="none"
         letter-spacing="normal"
         word-spacing="normal"><path
           style="fill:#000000;stroke-width:0"
           inkscape:connector-curvature="0"
           d="m 470.61,422.39 h 4.83 c 3.75,0 4.14,-0.8 4.14,-2.24 0,-0.36 0,-0.95 -0.34,-2.44 -0.11,-0.25 -0.16,-0.45 -0.16,-0.56 0,-0.39 0.3,-0.59 0.6,-0.59 0.5,0 0.5,0.15 0.75,1.05 l 2.75,10.81 c 0.14,0.54 0.14,0.65 0.14,0.79 0,0.1 -0.1,0.55 -0.6,0.55 -0.5,0 -0.54,-0.25 -0.75,-1.05 -1.04,-3.87 -2.18,-4.78 -6.42,-4.78 h -4.53 l 3.19,12.66 c 0.43,1.75 0.5,1.94 2.68,1.94 h 6.58 c 6.13,0 7.27,-1.64 7.27,-5.47 0,-1.16 0,-1.35 -0.14,-2.7 -0.11,-0.65 -0.11,-0.74 -0.11,-0.9 0,-0.25 0.15,-0.59 0.61,-0.59 0.54,0 0.59,0.3 0.69,1.25 l 1,8.61 c 0.15,1.34 -0.1,1.34 -1.35,1.34 h -24.4 c -1,0 -1.5,0 -1.5,-1 0,-0.54 0.45,-0.54 1.39,-0.54 1.84,0 3.23,0 3.23,-0.89 0,-0.21 0,-0.3 -0.25,-1.21 l -6.56,-26.34 c -0.5,-1.95 -0.61,-2.34 -4.55,-2.34 -0.84,0 -1.39,0 -1.39,-0.96 0,-0.59 0.59,-0.59 0.75,-0.59 1.44,0 5.13,0.16 6.58,0.16 1.64,0 5.78,-0.16 7.42,-0.16 0.45,0 1.05,0 1.05,0.95 0,0.39 -0.3,0.49 -0.3,0.55 -0.16,0.05 -0.25,0.05 -1.39,0.05 -1.11,0 -1.36,0 -2.59,0.09 -1.46,0.16 -1.6,0.36 -1.6,1 0,0.09 0,0.41 0.19,1.14 z"
           id="path19421" /><path
           style="fill:#000000;stroke-width:0"
           inkscape:connector-curvature="0"
           d="m 499.23,420.92 0,0.04 0,0.04 0,0.05 0,0.04 0,0.03 0,0.04 0,0.04 0,0.03 -0.01,0.04 0,0.03 0,0.03 0,0.03 0,0.03 -0.01,0.03 0,0.03 -0.01,0.02 0,0.03 0,0.02 -0.01,0.03 0,0.02 -0.02,0.04 -0.01,0.04 -0.02,0.03 -0.02,0.03 -0.02,0.03 -0.02,0.03 -0.03,0.02 -0.03,0.02 -0.04,0.02 -0.03,0.01 -0.04,0.01 -0.05,0.02 -0.02,0 -0.03,0 -0.02,0.01 -0.03,0 -0.02,0.01 -0.03,0 -0.03,0 -0.03,0 -0.04,0 -0.03,0.01 -0.03,0 -0.04,0 -0.04,0 -0.03,0 -0.04,0 -0.04,0 -0.04,0 -0.05,0 -0.04,0 -0.05,0 c -2.23,-2.2 -5.39,-2.23 -6.82,-2.23 v -1.25 c 0.84,0 3.14,0 5.04,0.97 v -17.77 c 0,-1.16 0,-1.61 -3.48,-1.61 h -1.31 v -1.25 c 0.62,0.03 4.9,0.14 6.2,0.14 1.08,0 5.47,-0.11 6.23,-0.14 v 1.25 h -1.33 c -3.48,0 -3.48,0.45 -3.48,1.61 z"
           id="path19423" /></g>    </g>
    <g
       transform="matrix(0.02845356,0,0,0.02845356,279.99328,506.28266)"
       id="g19425">
      <g
         style="font-style:normal;font-variant:normal;font-weight:normal;font-stretch:normal;letter-spacing:normal;word-spacing:normal;text-anchor:start;fill:none;stroke:#000000;stroke-linecap:butt;stroke-linejoin:miter;stroke-miterlimit:10.43299961;stroke-opacity:1;stroke-dasharray:none;stroke-dashoffset:0"
         word-spacing="normal"
         letter-spacing="normal"
         font-size-adjust="none"
         font-stretch="normal"
         font-weight="normal"
         font-variant="normal"
         font-style="normal"
         stroke-miterlimit="10.433"
         xml:space="preserve"
         transform="matrix(2.1259843,0,0,-2.1259843,-372.04725,1578.5433)"
         id="g19427"><path
           style="fill:#000000;stroke-width:0"
           inkscape:connector-curvature="0"
           id="path19429"
           d="m 470.61,422.39 h 4.83 c 3.75,0 4.14,-0.8 4.14,-2.24 0,-0.36 0,-0.95 -0.34,-2.44 -0.11,-0.25 -0.16,-0.45 -0.16,-0.56 0,-0.39 0.3,-0.59 0.6,-0.59 0.5,0 0.5,0.15 0.75,1.05 l 2.75,10.81 c 0.14,0.54 0.14,0.65 0.14,0.79 0,0.1 -0.1,0.55 -0.6,0.55 -0.5,0 -0.54,-0.25 -0.75,-1.05 -1.04,-3.87 -2.18,-4.78 -6.42,-4.78 h -4.53 l 3.19,12.66 c 0.43,1.75 0.5,1.94 2.68,1.94 h 6.58 c 6.13,0 7.27,-1.64 7.27,-5.47 0,-1.16 0,-1.35 -0.14,-2.7 -0.11,-0.65 -0.11,-0.74 -0.11,-0.9 0,-0.25 0.15,-0.59 0.61,-0.59 0.54,0 0.59,0.3 0.69,1.25 l 1,8.61 c 0.15,1.34 -0.1,1.34 -1.35,1.34 h -24.4 c -1,0 -1.5,0 -1.5,-1 0,-0.54 0.45,-0.54 1.39,-0.54 1.84,0 3.23,0 3.23,-0.89 0,-0.21 0,-0.3 -0.25,-1.21 l -6.56,-26.34 c -0.5,-1.95 -0.61,-2.34 -4.55,-2.34 -0.84,0 -1.39,0 -1.39,-0.96 0,-0.59 0.59,-0.59 0.75,-0.59 1.44,0 5.13,0.16 6.58,0.16 1.64,0 5.78,-0.16 7.42,-0.16 0.45,0 1.05,0 1.05,0.95 0,0.39 -0.3,0.49 -0.3,0.55 -0.16,0.05 -0.25,0.05 -1.39,0.05 -1.11,0 -1.36,0 -2.59,0.09 -1.46,0.16 -1.6,0.36 -1.6,1 0,0.09 0,0.41 0.19,1.14 z" /><path
           style="fill:#000000;stroke-width:0"
           inkscape:connector-curvature="0"
           id="path19431"
           d="m 505.15,405.11 h -1.19 c -0.09,-0.77 -0.45,-2.83 -0.9,-3.18 -0.27,-0.2 -2.95,-0.2 -3.44,-0.2 h -6.42 c 3.66,3.23 4.87,4.2 6.97,5.84 2.58,2.07 4.98,4.22 4.98,7.54 0,4.21 -3.69,6.79 -8.15,6.79 -4.32,0 -7.25,-3.03 -7.25,-6.23 0,-1.78 1.5,-1.96 1.86,-1.96 0.82,0 1.84,0.6 1.84,1.85 0,0.62 -0.25,1.84 -2.06,1.84 1.07,2.47 3.45,3.24 5.09,3.24 3.48,0 5.3,-2.71 5.3,-5.53 0,-3.04 -2.16,-5.44 -3.28,-6.69 l -8.39,-8.3 c -0.36,-0.31 -0.36,-0.39 -0.36,-1.36 h 14.36 z" /></g>    </g>
    <g
       transform="matrix(0.02845356,0,0,0.02845356,279.87753,524.89316)"
       id="g19433">
      <g
         style="font-style:normal;font-variant:normal;font-weight:normal;font-stretch:normal;letter-spacing:normal;word-spacing:normal;text-anchor:start;fill:none;stroke:#000000;stroke-linecap:butt;stroke-linejoin:miter;stroke-miterlimit:10.43299961;stroke-opacity:1;stroke-dasharray:none;stroke-dashoffset:0"
         id="g19435"
         transform="matrix(2.1259843,0,0,-2.1259843,-372.04725,1578.5433)"
         xml:space="preserve"
         stroke-miterlimit="10.433"
         font-style="normal"
         font-variant="normal"
         font-weight="normal"
         font-stretch="normal"
         font-size-adjust="none"
         letter-spacing="normal"
         word-spacing="normal"><path
           style="fill:#000000;stroke-width:0"
           inkscape:connector-curvature="0"
           d="m 470.61,422.39 h 4.83 c 3.75,0 4.14,-0.8 4.14,-2.24 0,-0.36 0,-0.95 -0.34,-2.44 -0.11,-0.25 -0.16,-0.45 -0.16,-0.56 0,-0.39 0.3,-0.59 0.6,-0.59 0.5,0 0.5,0.15 0.75,1.05 l 2.75,10.81 c 0.14,0.54 0.14,0.65 0.14,0.79 0,0.1 -0.1,0.55 -0.6,0.55 -0.5,0 -0.54,-0.25 -0.75,-1.05 -1.04,-3.87 -2.18,-4.78 -6.42,-4.78 h -4.53 l 3.19,12.66 c 0.43,1.75 0.5,1.94 2.68,1.94 h 6.58 c 6.13,0 7.27,-1.64 7.27,-5.47 0,-1.16 0,-1.35 -0.14,-2.7 -0.11,-0.65 -0.11,-0.74 -0.11,-0.9 0,-0.25 0.15,-0.59 0.61,-0.59 0.54,0 0.59,0.3 0.69,1.25 l 1,8.61 c 0.15,1.34 -0.1,1.34 -1.35,1.34 h -24.4 c -1,0 -1.5,0 -1.5,-1 0,-0.54 0.45,-0.54 1.39,-0.54 1.84,0 3.23,0 3.23,-0.89 0,-0.21 0,-0.3 -0.25,-1.21 l -6.56,-26.34 c -0.5,-1.95 -0.61,-2.34 -4.55,-2.34 -0.84,0 -1.39,0 -1.39,-0.96 0,-0.59 0.59,-0.59 0.75,-0.59 1.44,0 5.13,0.16 6.58,0.16 1.64,0 5.78,-0.16 7.42,-0.16 0.45,0 1.05,0 1.05,0.95 0,0.39 -0.3,0.49 -0.3,0.55 -0.16,0.05 -0.25,0.05 -1.39,0.05 -1.11,0 -1.36,0 -2.59,0.09 -1.46,0.16 -1.6,0.36 -1.6,1 0,0.09 0,0.41 0.19,1.14 z"
           id="path19437" /><path
           style="fill:#000000;stroke-width:0"
           inkscape:connector-curvature="0"
           d="m 505.54,409.87 0,0.71 -0.02,0.68 -0.03,0.66 -0.04,0.64 -0.06,0.62 -0.08,0.6 -0.09,0.57 -0.1,0.56 -0.13,0.55 -0.15,0.53 -0.17,0.51 -0.19,0.5 -0.21,0.49 -0.24,0.48 -0.26,0.47 -0.14,0.23 -0.15,0.23 c -1.08,1.61 -3.23,3 -6.03,3 v -0.98 c 1.89,0 3.7,-1.14 4.33,-3.17 0.56,-1.88 0.59,-4.39 0.59,-7.43 0,-2.57 0,-5.15 -0.45,-7.34 -0.71,-3.17 -3.06,-3.94 -4.47,-3.94 h 0 c -1.59,0 -3.72,0.94 -4.42,3.8 -0.49,2.05 -0.49,4.91 -0.49,7.48 0,2.55 0,5.21 0.52,7.11 0.73,2.75 2.97,3.49 4.39,3.49 v 0.98 c -8.08,0 -8.08,-9.51 -8.08,-12.03 0,-2.5 0,-11.81 8.08,-11.81 8.09,0 8.09,9.31 8.09,11.81 z"
           id="path19439" /></g>    </g>
    <g
       id="g19445"
       transform="matrix(0.11462786,0,0,0.11462786,450.57212,514.08866)">
      <g
         word-spacing="normal"
         letter-spacing="normal"
         font-size-adjust="none"
         font-stretch="normal"
         font-weight="normal"
         font-variant="normal"
         font-style="normal"
         stroke-miterlimit="10.433"
         xml:space="preserve"
         transform="matrix(1.0629921,0,0,-1.0629921,-186.02362,789.27165)"
         id="g19447"
         style="font-style:normal;font-variant:normal;font-weight:normal;font-stretch:normal;letter-spacing:normal;word-spacing:normal;text-anchor:start;fill:none;stroke:#000000;stroke-linecap:butt;stroke-linejoin:miter;stroke-miterlimit:10.43299961;stroke-opacity:1;stroke-dasharray:none;stroke-dashoffset:0"><path
           id="path19449"
           d="m 472.16,421.25 0.03,0.13 0.04,0.15 0.04,0.16 0.04,0.18 0.06,0.19 0.06,0.21 0.06,0.22 0.07,0.22 0.08,0.23 0.09,0.24 0.1,0.25 0.1,0.24 0.11,0.25 0.12,0.25 0.13,0.25 0.14,0.25 0.15,0.24 0.15,0.24 0.17,0.23 0.18,0.22 0.18,0.22 0.2,0.2 0.21,0.19 0.22,0.18 0.23,0.16 0.25,0.14 0.12,0.07 0.13,0.06 0.14,0.05 0.13,0.05 0.14,0.05 0.14,0.04 0.15,0.03 0.15,0.03 0.15,0.02 0.16,0.02 0.16,0.01 0.16,0 c 0.25,0 1.44,0 2.48,-0.64 -1.39,-0.25 -2.39,-1.5 -2.39,-2.69 0,-0.79 0.55,-1.75 1.89,-1.75 1.1,0 2.69,0.89 2.69,2.89 0,2.6 -2.94,3.28 -4.63,3.28 -2.89,0 -4.64,-2.64 -5.23,-3.78 -1.25,3.28 -3.94,3.78 -5.37,3.78 -5.19,0 -8.04,-6.42 -8.04,-7.67 0,-0.5 0.5,-0.5 0.61,-0.5 0.39,0 0.55,0.11 0.64,0.55 1.69,5.28 4.99,6.53 6.68,6.53 0.95,0 2.68,-0.44 2.68,-3.33 0,-1.54 -0.84,-4.89 -2.68,-11.86 -0.8,-3.09 -2.54,-5.18 -4.74,-5.18 -0.3,0 -1.44,0 -2.48,0.65 1.25,0.24 2.34,1.28 2.34,2.69 0,1.34 -1.09,1.73 -1.84,1.73 -1.5,0 -2.75,-1.29 -2.75,-2.89 0,-2.28 2.5,-3.28 4.68,-3.28 3.3,0 5.08,3.49 5.24,3.78 0.59,-1.84 2.39,-3.78 5.37,-3.78 5.14,0 7.99,6.42 7.99,7.67 0,0.5 -0.45,0.5 -0.61,0.5 -0.44,0 -0.55,-0.2 -0.64,-0.54 -1.64,-5.33 -5.03,-6.53 -6.63,-6.53 -1.95,0 -2.75,1.59 -2.75,3.29 0,1.1 0.3,2.19 0.86,4.38 z"
           inkscape:connector-curvature="0"
           style="fill:#000000;stroke-width:0" /></g>    </g>
    <g
       transform="matrix(0.11462786,0,0,0.11462786,350.98473,512.39836)"
       id="g19471">
      <g
         style="font-style:normal;font-variant:normal;font-weight:normal;font-stretch:normal;letter-spacing:normal;word-spacing:normal;text-anchor:start;fill:none;stroke:#000000;stroke-linecap:butt;stroke-linejoin:miter;stroke-miterlimit:10.43299961;stroke-opacity:1;stroke-dasharray:none;stroke-dashoffset:0"
         word-spacing="normal"
         letter-spacing="normal"
         font-size-adjust="none"
         font-stretch="normal"
         font-weight="normal"
         font-variant="normal"
         font-style="normal"
         stroke-miterlimit="10.433"
         xml:space="preserve"
         transform="matrix(1.0629921,0,0,-1.0629921,-186.02362,789.27165)"
         id="g19473"><path
           style="fill:#000000;stroke-width:0"
           inkscape:connector-curvature="0"
           id="path19475"
           d="m 474.4444,428.71046 0,0.45813 -0.006,0.46433 -0.0124,0.46433 -0.0248,0.45814 -0.0248,0.46432 -0.0371,0.45814 -0.0495,0.45814 -0.0557,0.45194 -0.0743,0.45195 -0.0867,0.45195 -0.0991,0.44575 -0.11763,0.44576 -0.13001,0.44575 -0.15478,0.43337 -0.17335,0.43338 -0.0929,0.21668 -0.0991,0.2105 c -1.41155,2.9717 -3.94369,3.46698 -5.24381,3.46698 -1.84493,0 -4.09847,-0.80484 -5.36763,-3.67748 -0.98437,-2.12971 -1.13915,-4.53803 -1.13915,-7.00206 0,-2.31545 0.12382,-5.08904 1.39298,-7.42925 1.32489,-2.49499 3.57842,-3.11409 5.08904,-3.11409 v 0.67482 c -1.20106,0 -3.02742,0.77388 -3.58461,3.7332 -0.33432,1.84493 -0.33432,4.68042 -0.33432,6.51297 0,1.96875 0,3.99941 0.24764,5.6648 0.58196,3.67748 2.89741,3.94988 3.67129,3.94988 1.01533,0 3.05218,-0.551 3.63414,-3.60937 0.30955,-1.72111 0.30955,-4.07371 0.30955,-6.00531 0,-2.32164 0,-4.41421 -0.34051,-6.38915 -0.46433,-2.92836 -2.22258,-3.85702 -3.60318,-3.85702 h 0 v -0.67482 c 1.6592,0 3.99941,0.64387 5.36763,3.57842 0.98437,2.12352 1.13915,4.52565 1.13915,6.96492 z" /></g>    </g>
    <g
       id="g19479"
       transform="matrix(0.11462786,0,0,0.11462786,392.07212,514.08866)">
      <g
         word-spacing="normal"
         letter-spacing="normal"
         font-size-adjust="none"
         font-stretch="normal"
         font-weight="normal"
         font-variant="normal"
         font-style="normal"
         stroke-miterlimit="10.433"
         xml:space="preserve"
         transform="matrix(1.0629921,0,0,-1.0629921,-186.02362,789.27165)"
         id="g19481"
         style="font-style:normal;font-variant:normal;font-weight:normal;font-stretch:normal;letter-spacing:normal;word-spacing:normal;text-anchor:start;fill:none;stroke:#000000;stroke-linecap:butt;stroke-linejoin:miter;stroke-miterlimit:10.43299961;stroke-opacity:1;stroke-dasharray:none;stroke-dashoffset:0"><path
           id="path19483"
           d="m 472.16,421.25 0.03,0.13 0.04,0.15 0.04,0.16 0.04,0.18 0.06,0.19 0.06,0.21 0.06,0.22 0.07,0.22 0.08,0.23 0.09,0.24 0.1,0.25 0.1,0.24 0.11,0.25 0.12,0.25 0.13,0.25 0.14,0.25 0.15,0.24 0.15,0.24 0.17,0.23 0.18,0.22 0.18,0.22 0.2,0.2 0.21,0.19 0.22,0.18 0.23,0.16 0.25,0.14 0.12,0.07 0.13,0.06 0.14,0.05 0.13,0.05 0.14,0.05 0.14,0.04 0.15,0.03 0.15,0.03 0.15,0.02 0.16,0.02 0.16,0.01 0.16,0 c 0.25,0 1.44,0 2.48,-0.64 -1.39,-0.25 -2.39,-1.5 -2.39,-2.69 0,-0.79 0.55,-1.75 1.89,-1.75 1.1,0 2.69,0.89 2.69,2.89 0,2.6 -2.94,3.28 -4.63,3.28 -2.89,0 -4.64,-2.64 -5.23,-3.78 -1.25,3.28 -3.94,3.78 -5.37,3.78 -5.19,0 -8.04,-6.42 -8.04,-7.67 0,-0.5 0.5,-0.5 0.61,-0.5 0.39,0 0.55,0.11 0.64,0.55 1.69,5.28 4.99,6.53 6.68,6.53 0.95,0 2.68,-0.44 2.68,-3.33 0,-1.54 -0.84,-4.89 -2.68,-11.86 -0.8,-3.09 -2.54,-5.18 -4.74,-5.18 -0.3,0 -1.44,0 -2.48,0.65 1.25,0.24 2.34,1.28 2.34,2.69 0,1.34 -1.09,1.73 -1.84,1.73 -1.5,0 -2.75,-1.29 -2.75,-2.89 0,-2.28 2.5,-3.28 4.68,-3.28 3.3,0 5.08,3.49 5.24,3.78 0.59,-1.84 2.39,-3.78 5.37,-3.78 5.14,0 7.99,6.42 7.99,7.67 0,0.5 -0.45,0.5 -0.61,0.5 -0.44,0 -0.55,-0.2 -0.64,-0.54 -1.64,-5.33 -5.03,-6.53 -6.63,-6.53 -1.95,0 -2.75,1.59 -2.75,3.29 0,1.1 0.3,2.19 0.86,4.38 z"
           inkscape:connector-curvature="0"
           style="fill:#000000;stroke-width:0" /></g>    </g>
    <g
       id="g19511"
       transform="matrix(0.11462786,0,0,0.11462786,292.03024,512.39836)">
      <g
         id="g19513"
         transform="matrix(1.0629921,0,0,-1.0629921,-186.02362,789.27165)"
         xml:space="preserve"
         stroke-miterlimit="10.433"
         font-style="normal"
         font-variant="normal"
         font-weight="normal"
         font-stretch="normal"
         font-size-adjust="none"
         letter-spacing="normal"
         word-spacing="normal"
         style="font-style:normal;font-variant:normal;font-weight:normal;font-stretch:normal;letter-spacing:normal;word-spacing:normal;text-anchor:start;fill:none;stroke:#000000;stroke-linecap:butt;stroke-linejoin:miter;stroke-miterlimit:10.43299961;stroke-opacity:1;stroke-dasharray:none;stroke-dashoffset:0"><path
           d="m 474.4444,428.71046 0,0.45813 -0.006,0.46433 -0.0124,0.46433 -0.0248,0.45814 -0.0248,0.46432 -0.0371,0.45814 -0.0495,0.45814 -0.0557,0.45194 -0.0743,0.45195 -0.0867,0.45195 -0.0991,0.44575 -0.11763,0.44576 -0.13001,0.44575 -0.15478,0.43337 -0.17335,0.43338 -0.0929,0.21668 -0.0991,0.2105 c -1.41155,2.9717 -3.94369,3.46698 -5.24381,3.46698 -1.84493,0 -4.09847,-0.80484 -5.36763,-3.67748 -0.98437,-2.12971 -1.13915,-4.53803 -1.13915,-7.00206 0,-2.31545 0.12382,-5.08904 1.39298,-7.42925 1.32489,-2.49499 3.57842,-3.11409 5.08904,-3.11409 v 0.67482 c -1.20106,0 -3.02742,0.77388 -3.58461,3.7332 -0.33432,1.84493 -0.33432,4.68042 -0.33432,6.51297 0,1.96875 0,3.99941 0.24764,5.6648 0.58196,3.67748 2.89741,3.94988 3.67129,3.94988 1.01533,0 3.05218,-0.551 3.63414,-3.60937 0.30955,-1.72111 0.30955,-4.07371 0.30955,-6.00531 0,-2.32164 0,-4.41421 -0.34051,-6.38915 -0.46433,-2.92836 -2.22258,-3.85702 -3.60318,-3.85702 h 0 v -0.67482 c 1.6592,0 3.99941,0.64387 5.36763,3.57842 0.98437,2.12352 1.13915,4.52565 1.13915,6.96492 z"
           id="path19515"
           inkscape:connector-curvature="0"
           style="fill:#000000;stroke-width:0" /></g>    </g>
    <g
       id="g19525"
       transform="matrix(0.11462786,0,0,0.11462786,333.11762,514.08866)">
      <g
         word-spacing="normal"
         letter-spacing="normal"
         font-size-adjust="none"
         font-stretch="normal"
         font-weight="normal"
         font-variant="normal"
         font-style="normal"
         stroke-miterlimit="10.433"
         xml:space="preserve"
         transform="matrix(1.0629921,0,0,-1.0629921,-186.02362,789.27165)"
         id="g19527"
         style="font-style:normal;font-variant:normal;font-weight:normal;font-stretch:normal;letter-spacing:normal;word-spacing:normal;text-anchor:start;fill:none;stroke:#000000;stroke-linecap:butt;stroke-linejoin:miter;stroke-miterlimit:10.43299961;stroke-opacity:1;stroke-dasharray:none;stroke-dashoffset:0"><path
           id="path19529"
           d="m 477.9632,421.25 0.03,0.13 0.04,0.15 0.04,0.16 0.04,0.18 0.06,0.19 0.06,0.21 0.06,0.22 0.07,0.22 0.08,0.23 0.09,0.24 0.1,0.25 0.1,0.24 0.11,0.25 0.12,0.25 0.13,0.25 0.14,0.25 0.15,0.24 0.15,0.24 0.17,0.23 0.18,0.22 0.18,0.22 0.2,0.2 0.21,0.19 0.22,0.18 0.23,0.16 0.25,0.14 0.12,0.07 0.13,0.06 0.14,0.05 0.13,0.05 0.14,0.05 0.14,0.04 0.15,0.03 0.15,0.03 0.15,0.02 0.16,0.02 0.16,0.01 0.16,0 c 0.25,0 1.44,0 2.48,-0.64 -1.39,-0.25 -2.39,-1.5 -2.39,-2.69 0,-0.79 0.55,-1.75 1.89,-1.75 1.1,0 2.69,0.89 2.69,2.89 0,2.6 -2.94,3.28 -4.63,3.28 -2.89,0 -4.64,-2.64 -5.23,-3.78 -1.25,3.28 -3.94,3.78 -5.37,3.78 -5.19,0 -8.04,-6.42 -8.04,-7.67 0,-0.5 0.5,-0.5 0.61,-0.5 0.39,0 0.55,0.11 0.64,0.55 1.69,5.28 4.99,6.53 6.68,6.53 0.95,0 2.68,-0.44 2.68,-3.33 0,-1.54 -0.84,-4.89 -2.68,-11.86 -0.8,-3.09 -2.54,-5.18 -4.74,-5.18 -0.3,0 -1.44,0 -2.48,0.65 1.25,0.24 2.34,1.28 2.34,2.69 0,1.34 -1.09,1.73 -1.84,1.73 -1.5,0 -2.75,-1.29 -2.75,-2.89 0,-2.28 2.5,-3.28 4.68,-3.28 3.3,0 5.08,3.49 5.24,3.78 0.59,-1.84 2.39,-3.78 5.37,-3.78 5.14,0 7.99,6.42 7.99,7.67 0,0.5 -0.45,0.5 -0.61,0.5 -0.44,0 -0.55,-0.2 -0.64,-0.54 -1.64,-5.33 -5.03,-6.53 -6.63,-6.53 -1.95,0 -2.75,1.59 -2.75,3.29 0,1.1 0.3,2.19 0.86,4.38 z"
           inkscape:connector-curvature="0"
           style="fill:#000000;stroke-width:0" /></g>    </g>
    <g
       transform="matrix(0.11462786,0,0,0.11462786,272.76406,514.26546)"
       id="g5296">
      <g
         style="font-style:normal;font-variant:normal;font-weight:normal;font-stretch:normal;letter-spacing:normal;word-spacing:normal;text-anchor:start;fill:none;stroke:#000000;stroke-linecap:butt;stroke-linejoin:miter;stroke-miterlimit:10.43299961;stroke-opacity:1;stroke-dasharray:none;stroke-dashoffset:0"
         id="g5298"
         transform="matrix(1.0629921,0,0,-1.0629921,-186.02362,789.27165)"
         xml:space="preserve"
         stroke-miterlimit="10.433"
         font-style="normal"
         font-variant="normal"
         font-weight="normal"
         font-stretch="normal"
         font-size-adjust="none"
         letter-spacing="normal"
         word-spacing="normal"><path
           style="fill:#000000;stroke-width:0"
           inkscape:connector-curvature="0"
           d="m 477.9632,421.25 0.03,0.13 0.04,0.15 0.04,0.16 0.04,0.18 0.06,0.19 0.06,0.21 0.06,0.22 0.07,0.22 0.08,0.23 0.09,0.24 0.1,0.25 0.1,0.24 0.11,0.25 0.12,0.25 0.13,0.25 0.14,0.25 0.15,0.24 0.15,0.24 0.17,0.23 0.18,0.22 0.18,0.22 0.2,0.2 0.21,0.19 0.22,0.18 0.23,0.16 0.25,0.14 0.12,0.07 0.13,0.06 0.14,0.05 0.13,0.05 0.14,0.05 0.14,0.04 0.15,0.03 0.15,0.03 0.15,0.02 0.16,0.02 0.16,0.01 0.16,0 c 0.25,0 1.44,0 2.48,-0.64 -1.39,-0.25 -2.39,-1.5 -2.39,-2.69 0,-0.79 0.55,-1.75 1.89,-1.75 1.1,0 2.69,0.89 2.69,2.89 0,2.6 -2.94,3.28 -4.63,3.28 -2.89,0 -4.64,-2.64 -5.23,-3.78 -1.25,3.28 -3.94,3.78 -5.37,3.78 -5.19,0 -8.04,-6.42 -8.04,-7.67 0,-0.5 0.5,-0.5 0.61,-0.5 0.39,0 0.55,0.11 0.64,0.55 1.69,5.28 4.99,6.53 6.68,6.53 0.95,0 2.68,-0.44 2.68,-3.33 0,-1.54 -0.84,-4.89 -2.68,-11.86 -0.8,-3.09 -2.54,-5.18 -4.74,-5.18 -0.3,0 -1.44,0 -2.48,0.65 1.25,0.24 2.34,1.28 2.34,2.69 0,1.34 -1.09,1.73 -1.84,1.73 -1.5,0 -2.75,-1.29 -2.75,-2.89 0,-2.28 2.5,-3.28 4.68,-3.28 3.3,0 5.08,3.49 5.24,3.78 0.59,-1.84 2.39,-3.78 5.37,-3.78 5.14,0 7.99,6.42 7.99,7.67 0,0.5 -0.45,0.5 -0.61,0.5 -0.44,0 -0.55,-0.2 -0.64,-0.54 -1.64,-5.33 -5.03,-6.53 -6.63,-6.53 -1.95,0 -2.75,1.59 -2.75,3.29 0,1.1 0.3,2.19 0.86,4.38 z"
           id="path5300" /></g>    </g>
    <g
       transform="matrix(0.04883646,0,0,0.04883646,236.24313,487.56716)"
       id="g7583">
      <g
         style="font-style:normal;font-variant:normal;font-weight:normal;font-stretch:normal;letter-spacing:normal;word-spacing:normal;text-anchor:start;fill:none;stroke:#000000;stroke-linecap:butt;stroke-linejoin:miter;stroke-miterlimit:10.43299961;stroke-opacity:1;stroke-dasharray:none;stroke-dashoffset:0"
         id="g7585"
         transform="matrix(2.1259843,0,0,-2.1259843,-417.04725,1372.5433)"
         xml:space="preserve"
         stroke-miterlimit="10.433"
         font-style="normal"
         font-variant="normal"
         font-weight="normal"
         font-stretch="normal"
         font-size-adjust="none"
         letter-spacing="normal"
         word-spacing="normal"><path
           style="fill:#000000;stroke-width:0"
           inkscape:connector-curvature="0"
           d="m 474.16,436.34 0.04,0.16 0.04,0.16 0.04,0.15 0.04,0.15 0.04,0.13 0.05,0.13 0.05,0.13 0.05,0.11 0.06,0.12 0.06,0.1 0.08,0.1 0.08,0.09 0.09,0.09 0.1,0.08 0.11,0.08 0.12,0.07 0.13,0.06 0.15,0.06 0.16,0.06 0.18,0.05 0.09,0.02 0.1,0.02 0.1,0.02 0.11,0.02 0.11,0.02 0.11,0.02 0.12,0.02 0.13,0.01 0.13,0.01 0.14,0.02 0.14,0.01 0.14,0.01 0.15,0.01 0.16,0.01 0.16,0.01 0.17,0.01 0.17,0 0.18,0.01 0.18,0 0.19,0.01 0.2,0 0.2,0 0.21,0 0.22,0 c 1.49,0 1.89,0 1.89,0.96 0,0.59 -0.54,0.59 -0.79,0.59 -1.66,0 -5.74,-0.16 -7.38,-0.16 -1.5,0 -5.14,0.16 -6.62,0.16 -0.36,0 -0.96,0 -0.96,-1 0,-0.55 0.46,-0.55 1.39,-0.55 0.11,0 1.05,0 1.91,-0.09 0.89,-0.11 1.34,-0.16 1.34,-0.8 0,-0.2 -0.06,-0.36 -0.2,-0.95 l -6.67,-26.75 c -0.5,-1.95 -0.61,-2.34 -4.55,-2.34 -0.84,0 -1.34,0 -1.34,-1 0,-0.55 0.45,-0.55 1.34,-0.55 h 23.08 c 1.19,0 1.23,0 1.55,0.84 l 3.92,10.77 c 0.2,0.55 0.2,0.64 0.2,0.7 0,0.19 -0.14,0.55 -0.59,0.55 -0.46,0 -0.5,-0.25 -0.85,-1.05 -1.7,-4.59 -3.89,-10.26 -12.51,-10.26 h -4.67 c -0.71,0 -0.8,0 -1.1,0.04 -0.5,0.05 -0.65,0.1 -0.65,0.5 0,0.14 0,0.25 0.25,1.14 z"
           id="path7587" /></g>    </g>
    <g
       id="g19066"
       transform="matrix(0.04883646,0,0,0.04883646,296.24313,487.56716)">
      <g
         word-spacing="normal"
         letter-spacing="normal"
         font-size-adjust="none"
         font-stretch="normal"
         font-weight="normal"
         font-variant="normal"
         font-style="normal"
         stroke-miterlimit="10.433"
         xml:space="preserve"
         transform="matrix(2.1259843,0,0,-2.1259843,-417.04725,1372.5433)"
         id="g19068"
         style="font-style:normal;font-variant:normal;font-weight:normal;font-stretch:normal;letter-spacing:normal;word-spacing:normal;text-anchor:start;fill:none;stroke:#000000;stroke-linecap:butt;stroke-linejoin:miter;stroke-miterlimit:10.43299961;stroke-opacity:1;stroke-dasharray:none;stroke-dashoffset:0"><path
           id="path19070"
           d="m 474.16,436.34 0.04,0.16 0.04,0.16 0.04,0.15 0.04,0.15 0.04,0.13 0.05,0.13 0.05,0.13 0.05,0.11 0.06,0.12 0.06,0.1 0.08,0.1 0.08,0.09 0.09,0.09 0.1,0.08 0.11,0.08 0.12,0.07 0.13,0.06 0.15,0.06 0.16,0.06 0.18,0.05 0.09,0.02 0.1,0.02 0.1,0.02 0.11,0.02 0.11,0.02 0.11,0.02 0.12,0.02 0.13,0.01 0.13,0.01 0.14,0.02 0.14,0.01 0.14,0.01 0.15,0.01 0.16,0.01 0.16,0.01 0.17,0.01 0.17,0 0.18,0.01 0.18,0 0.19,0.01 0.2,0 0.2,0 0.21,0 0.22,0 c 1.49,0 1.89,0 1.89,0.96 0,0.59 -0.54,0.59 -0.79,0.59 -1.66,0 -5.74,-0.16 -7.38,-0.16 -1.5,0 -5.14,0.16 -6.62,0.16 -0.36,0 -0.96,0 -0.96,-1 0,-0.55 0.46,-0.55 1.39,-0.55 0.11,0 1.05,0 1.91,-0.09 0.89,-0.11 1.34,-0.16 1.34,-0.8 0,-0.2 -0.06,-0.36 -0.2,-0.95 l -6.67,-26.75 c -0.5,-1.95 -0.61,-2.34 -4.55,-2.34 -0.84,0 -1.34,0 -1.34,-1 0,-0.55 0.45,-0.55 1.34,-0.55 h 23.08 c 1.19,0 1.23,0 1.55,0.84 l 3.92,10.77 c 0.2,0.55 0.2,0.64 0.2,0.7 0,0.19 -0.14,0.55 -0.59,0.55 -0.46,0 -0.5,-0.25 -0.85,-1.05 -1.7,-4.59 -3.89,-10.26 -12.51,-10.26 h -4.67 c -0.71,0 -0.8,0 -1.1,0.04 -0.5,0.05 -0.65,0.1 -0.65,0.5 0,0.14 0,0.25 0.25,1.14 z"
           inkscape:connector-curvature="0"
           style="fill:#000000;stroke-width:0" /></g>    </g>
    <g
       transform="matrix(0.04883646,0,0,0.04883646,355.24313,487.56716)"
       id="g19072">
      <g
         style="font-style:normal;font-variant:normal;font-weight:normal;font-stretch:normal;letter-spacing:normal;word-spacing:normal;text-anchor:start;fill:none;stroke:#000000;stroke-linecap:butt;stroke-linejoin:miter;stroke-miterlimit:10.43299961;stroke-opacity:1;stroke-dasharray:none;stroke-dashoffset:0"
         id="g19074"
         transform="matrix(2.1259843,0,0,-2.1259843,-417.04725,1372.5433)"
         xml:space="preserve"
         stroke-miterlimit="10.433"
         font-style="normal"
         font-variant="normal"
         font-weight="normal"
         font-stretch="normal"
         font-size-adjust="none"
         letter-spacing="normal"
         word-spacing="normal"><path
           style="fill:#000000;stroke-width:0"
           inkscape:connector-curvature="0"
           d="m 474.16,436.34 0.04,0.16 0.04,0.16 0.04,0.15 0.04,0.15 0.04,0.13 0.05,0.13 0.05,0.13 0.05,0.11 0.06,0.12 0.06,0.1 0.08,0.1 0.08,0.09 0.09,0.09 0.1,0.08 0.11,0.08 0.12,0.07 0.13,0.06 0.15,0.06 0.16,0.06 0.18,0.05 0.09,0.02 0.1,0.02 0.1,0.02 0.11,0.02 0.11,0.02 0.11,0.02 0.12,0.02 0.13,0.01 0.13,0.01 0.14,0.02 0.14,0.01 0.14,0.01 0.15,0.01 0.16,0.01 0.16,0.01 0.17,0.01 0.17,0 0.18,0.01 0.18,0 0.19,0.01 0.2,0 0.2,0 0.21,0 0.22,0 c 1.49,0 1.89,0 1.89,0.96 0,0.59 -0.54,0.59 -0.79,0.59 -1.66,0 -5.74,-0.16 -7.38,-0.16 -1.5,0 -5.14,0.16 -6.62,0.16 -0.36,0 -0.96,0 -0.96,-1 0,-0.55 0.46,-0.55 1.39,-0.55 0.11,0 1.05,0 1.91,-0.09 0.89,-0.11 1.34,-0.16 1.34,-0.8 0,-0.2 -0.06,-0.36 -0.2,-0.95 l -6.67,-26.75 c -0.5,-1.95 -0.61,-2.34 -4.55,-2.34 -0.84,0 -1.34,0 -1.34,-1 0,-0.55 0.45,-0.55 1.34,-0.55 h 23.08 c 1.19,0 1.23,0 1.55,0.84 l 3.92,10.77 c 0.2,0.55 0.2,0.64 0.2,0.7 0,0.19 -0.14,0.55 -0.59,0.55 -0.46,0 -0.5,-0.25 -0.85,-1.05 -1.7,-4.59 -3.89,-10.26 -12.51,-10.26 h -4.67 c -0.71,0 -0.8,0 -1.1,0.04 -0.5,0.05 -0.65,0.1 -0.65,0.5 0,0.14 0,0.25 0.25,1.14 z"
           id="path19076" /></g>    </g>
    <g
       id="g19078"
       transform="matrix(0.04883646,0,0,0.04883646,413.24314,487.56716)">
      <g
         word-spacing="normal"
         letter-spacing="normal"
         font-size-adjust="none"
         font-stretch="normal"
         font-weight="normal"
         font-variant="normal"
         font-style="normal"
         stroke-miterlimit="10.433"
         xml:space="preserve"
         transform="matrix(2.1259843,0,0,-2.1259843,-417.04725,1372.5433)"
         id="g19080"
         style="font-style:normal;font-variant:normal;font-weight:normal;font-stretch:normal;letter-spacing:normal;word-spacing:normal;text-anchor:start;fill:none;stroke:#000000;stroke-linecap:butt;stroke-linejoin:miter;stroke-miterlimit:10.43299961;stroke-opacity:1;stroke-dasharray:none;stroke-dashoffset:0"><path
           id="path19082"
           d="m 474.16,436.34 0.04,0.16 0.04,0.16 0.04,0.15 0.04,0.15 0.04,0.13 0.05,0.13 0.05,0.13 0.05,0.11 0.06,0.12 0.06,0.1 0.08,0.1 0.08,0.09 0.09,0.09 0.1,0.08 0.11,0.08 0.12,0.07 0.13,0.06 0.15,0.06 0.16,0.06 0.18,0.05 0.09,0.02 0.1,0.02 0.1,0.02 0.11,0.02 0.11,0.02 0.11,0.02 0.12,0.02 0.13,0.01 0.13,0.01 0.14,0.02 0.14,0.01 0.14,0.01 0.15,0.01 0.16,0.01 0.16,0.01 0.17,0.01 0.17,0 0.18,0.01 0.18,0 0.19,0.01 0.2,0 0.2,0 0.21,0 0.22,0 c 1.49,0 1.89,0 1.89,0.96 0,0.59 -0.54,0.59 -0.79,0.59 -1.66,0 -5.74,-0.16 -7.38,-0.16 -1.5,0 -5.14,0.16 -6.62,0.16 -0.36,0 -0.96,0 -0.96,-1 0,-0.55 0.46,-0.55 1.39,-0.55 0.11,0 1.05,0 1.91,-0.09 0.89,-0.11 1.34,-0.16 1.34,-0.8 0,-0.2 -0.06,-0.36 -0.2,-0.95 l -6.67,-26.75 c -0.5,-1.95 -0.61,-2.34 -4.55,-2.34 -0.84,0 -1.34,0 -1.34,-1 0,-0.55 0.45,-0.55 1.34,-0.55 h 23.08 c 1.19,0 1.23,0 1.55,0.84 l 3.92,10.77 c 0.2,0.55 0.2,0.64 0.2,0.7 0,0.19 -0.14,0.55 -0.59,0.55 -0.46,0 -0.5,-0.25 -0.85,-1.05 -1.7,-4.59 -3.89,-10.26 -12.51,-10.26 h -4.67 c -0.71,0 -0.8,0 -1.1,0.04 -0.5,0.05 -0.65,0.1 -0.65,0.5 0,0.14 0,0.25 0.25,1.14 z"
           inkscape:connector-curvature="0"
           style="fill:#000000;stroke-width:0" /></g>    </g>
    <g
       transform="matrix(0.03208316,0,0,0.03208316,242.7823,499.14276)"
       id="g12247">
      <g
         style="font-style:normal;font-variant:normal;font-weight:normal;font-stretch:normal;letter-spacing:normal;word-spacing:normal;text-anchor:start;fill:none;stroke:#000000;stroke-linecap:butt;stroke-linejoin:miter;stroke-miterlimit:10.43299961;stroke-opacity:1;stroke-dasharray:none;stroke-dashoffset:0"
         id="g12249"
         transform="matrix(2.1259843,0,0,-2.1259843,-372.04725,1578.5433)"
         xml:space="preserve"
         stroke-miterlimit="10.433"
         font-style="normal"
         font-variant="normal"
         font-weight="normal"
         font-stretch="normal"
         font-size-adjust="none"
         letter-spacing="normal"
         word-spacing="normal"><path
           style="fill:#000000;stroke-width:0"
           inkscape:connector-curvature="0"
           d="m 474.16,436.34 0.04,0.16 0.04,0.16 0.04,0.15 0.04,0.15 0.04,0.13 0.05,0.13 0.05,0.13 0.05,0.11 0.06,0.12 0.06,0.1 0.08,0.1 0.08,0.09 0.09,0.09 0.1,0.08 0.11,0.08 0.12,0.07 0.13,0.06 0.15,0.06 0.16,0.06 0.18,0.05 0.09,0.02 0.1,0.02 0.1,0.02 0.11,0.02 0.11,0.02 0.11,0.02 0.12,0.02 0.13,0.01 0.13,0.01 0.14,0.02 0.14,0.01 0.14,0.01 0.15,0.01 0.16,0.01 0.16,0.01 0.17,0.01 0.17,0 0.18,0.01 0.18,0 0.19,0.01 0.2,0 0.2,0 0.21,0 0.22,0 c 1.49,0 1.89,0 1.89,0.96 0,0.59 -0.54,0.59 -0.79,0.59 -1.66,0 -5.74,-0.16 -7.38,-0.16 -1.5,0 -5.14,0.16 -6.62,0.16 -0.36,0 -0.96,0 -0.96,-1 0,-0.55 0.46,-0.55 1.39,-0.55 0.11,0 1.05,0 1.91,-0.09 0.89,-0.11 1.34,-0.16 1.34,-0.8 0,-0.2 -0.06,-0.36 -0.2,-0.95 l -6.67,-26.75 c -0.5,-1.95 -0.61,-2.34 -4.55,-2.34 -0.84,0 -1.34,0 -1.34,-1 0,-0.55 0.45,-0.55 1.34,-0.55 h 23.08 c 1.19,0 1.23,0 1.55,0.84 l 3.92,10.77 c 0.2,0.55 0.2,0.64 0.2,0.7 0,0.19 -0.14,0.55 -0.59,0.55 -0.46,0 -0.5,-0.25 -0.85,-1.05 -1.7,-4.59 -3.89,-10.26 -12.51,-10.26 h -4.67 c -0.71,0 -0.8,0 -1.1,0.04 -0.5,0.05 -0.65,0.1 -0.65,0.5 0,0.14 0,0.25 0.25,1.14 z"
           id="path12251" /><path
           style="fill:#000000;stroke-width:0"
           inkscape:connector-curvature="0"
           d="m 499.59,440.65 0.03,0.06 0.02,0.05 0.02,0.05 0.02,0.05 0.02,0.04 0.02,0.05 0.02,0.04 0.02,0.04 0.01,0.05 0.02,0.04 0.01,0.03 0.01,0.04 0.01,0.04 0.01,0.03 0.01,0.04 0.01,0.03 0.01,0.03 0.01,0.03 0,0.03 0.01,0.03 0,0.03 0.01,0.03 0,0.03 0,0.02 0.01,0.06 0,0.05 0,0.04 0,0.05 c 0,1.08 -0.98,1.92 -2.06,1.92 -1.33,0 -1.73,-1.09 -1.91,-1.64 l -4.61,-15.09 c -0.03,-0.06 -0.17,-0.52 -0.17,-0.56 0,-0.41 1.08,-0.77 1.36,-0.77 0.25,0 0.28,0.08 0.52,0.59 z"
           id="path12253" /><path
           style="fill:#000000;stroke-width:0"
           inkscape:connector-curvature="0"
           d="m 507.07,400.18 h -1.18 c -0.1,-0.76 -0.46,-2.82 -0.91,-3.17 -0.27,-0.2 -2.95,-0.2 -3.44,-0.2 h -6.42 c 3.66,3.23 4.88,4.2 6.97,5.84 2.58,2.06 4.98,4.22 4.98,7.53 0,4.22 -3.68,6.8 -8.15,6.8 -4.31,0 -7.25,-3.03 -7.25,-6.23 0,-1.79 1.5,-1.96 1.86,-1.96 0.83,0 1.84,0.6 1.84,1.85 0,0.62 -0.25,1.84 -2.06,1.84 1.08,2.47 3.45,3.23 5.09,3.23 3.49,0 5.3,-2.7 5.3,-5.53 0,-3.03 -2.16,-5.43 -3.28,-6.68 l -8.39,-8.3 c -0.36,-0.31 -0.36,-0.39 -0.36,-1.36 h 14.36 z"
           id="path12255" /><path
           style="fill:#000000;stroke-width:0"
           inkscape:connector-curvature="0"
           d="m 514.68,413.28 0.17,-0.04 0.16,-0.04 0.15,-0.04 0.15,-0.03 0.15,-0.03 0.14,-0.03 0.14,-0.03 0.14,-0.02 0.13,-0.03 0.13,-0.02 0.12,-0.02 0.12,-0.02 0.12,-0.01 0.11,-0.02 0.11,-0.01 0.1,-0.01 0.1,-0.01 0.1,-0.01 0.1,-0.01 0.09,0 0.09,-0.01 0.08,0 0.08,-0.01 0.08,0 0.08,0 0.07,0 0.07,0 0.06,-0.01 0.07,0 0.06,0 0.05,0 0.06,0 c 4.59,0 7.31,3.14 7.31,3.68 0,0.37 -0.23,0.48 -0.4,0.48 -0.08,0 -0.15,0 -0.29,-0.11 -0.84,-0.31 -2.68,-1.01 -5.26,-1.01 -0.97,0 -2.83,0.07 -5.1,0.95 -0.34,0.17 -0.4,0.17 -0.45,0.17 -0.45,0 -0.45,-0.39 -0.45,-0.94 v -10.28 c 0,-0.59 0,-1.01 0.56,-1.01 0.31,0 0.34,0.06 0.7,0.48 1.5,1.92 3.63,2.2 4.85,2.2 2.07,0 3.03,-1.67 3.2,-1.95 0.62,-1.16 0.83,-2.47 0.83,-4.5 0,-1.05 0,-3.09 -1.05,-4.62 -0.86,-1.27 -2.36,-2.1 -4.06,-2.1 -2.27,0 -4.61,1.25 -5.48,3.55 1.32,-0.1 1.98,0.76 1.98,1.7 0,1.5 -1.28,1.78 -1.73,1.78 -0.07,0 -1.76,0 -1.76,-1.87 0,-3.14 2.86,-6.28 7.05,-6.28 4.46,0 8.36,3.31 8.36,7.7 0,3.94 -3,7.56 -7.31,7.56 -1.53,0 -3.34,-0.37 -4.88,-1.7 z"
           id="path12257" /><path
           style="fill:#000000;stroke-width:0"
           inkscape:connector-curvature="0"
           d="m 534.48,413.28 0.16,-0.04 0.16,-0.04 0.16,-0.04 0.15,-0.03 0.15,-0.03 0.14,-0.03 0.14,-0.03 0.13,-0.02 0.13,-0.03 0.13,-0.02 0.13,-0.02 0.12,-0.02 0.11,-0.01 0.11,-0.02 0.11,-0.01 0.11,-0.01 0.1,-0.01 0.1,-0.01 0.09,-0.01 0.1,0 0.08,-0.01 0.09,0 0.08,-0.01 0.08,0 0.07,0 0.08,0 0.07,0 0.06,-0.01 0.06,0 0.06,0 0.06,0 0.05,0 c 4.6,0 7.32,3.14 7.32,3.68 0,0.37 -0.24,0.48 -0.41,0.48 -0.08,0 -0.14,0 -0.28,-0.11 -0.84,-0.31 -2.69,-1.01 -5.26,-1.01 -0.97,0 -2.83,0.07 -5.1,0.95 -0.34,0.17 -0.4,0.17 -0.45,0.17 -0.45,0 -0.45,-0.39 -0.45,-0.94 v -10.28 c 0,-0.59 0,-1.01 0.56,-1.01 0.31,0 0.34,0.06 0.7,0.48 1.5,1.92 3.62,2.2 4.84,2.2 2.08,0 3.03,-1.67 3.21,-1.95 0.62,-1.16 0.82,-2.47 0.82,-4.5 0,-1.05 0,-3.09 -1.04,-4.62 -0.86,-1.27 -2.36,-2.1 -4.06,-2.1 -2.27,0 -4.61,1.25 -5.49,3.55 1.33,-0.1 1.99,0.76 1.99,1.7 0,1.5 -1.28,1.78 -1.74,1.78 -0.06,0 -1.75,0 -1.75,-1.87 0,-3.14 2.86,-6.28 7.05,-6.28 4.45,0 8.36,3.31 8.36,7.7 0,3.94 -3,7.56 -7.32,7.56 -1.53,0 -3.34,-0.37 -4.87,-1.7 z"
           id="path12259" /></g>    </g>
    <g
       transform="matrix(0.0352336,0,0,0.0352336,300.89871,496.66386)"
       id="g21604">
      <g
         style="font-style:normal;font-variant:normal;font-weight:normal;font-stretch:normal;letter-spacing:normal;word-spacing:normal;text-anchor:start;fill:none;stroke:#000000;stroke-linecap:butt;stroke-linejoin:miter;stroke-miterlimit:10.43299961;stroke-opacity:1;stroke-dasharray:none;stroke-dashoffset:0"
         id="g21606"
         transform="matrix(2.1259843,0,0,-2.1259843,-372.04725,1578.5433)"
         xml:space="preserve"
         stroke-miterlimit="10.433"
         font-style="normal"
         font-variant="normal"
         font-weight="normal"
         font-stretch="normal"
         font-size-adjust="none"
         letter-spacing="normal"
         word-spacing="normal"><path
           style="fill:#000000;stroke-width:0"
           inkscape:connector-curvature="0"
           d="m 475.88,448.02 0.03,0.11 0.03,0.11 0.02,0.11 0.03,0.1 0.03,0.09 0.03,0.09 0.04,0.09 0.04,0.08 0.04,0.08 0.04,0.07 0.05,0.07 0.06,0.06 0.06,0.06 0.07,0.06 0.07,0.05 0.09,0.04 0.09,0.05 0.1,0.04 0.11,0.04 0.12,0.03 0.07,0.01 0.06,0.02 0.07,0.01 0.08,0.02 0.07,0.01 0.08,0.01 0.08,0.01 0.09,0.01 0.09,0.01 0.09,0.01 0.1,0.01 0.1,0 0.1,0.01 0.11,0.01 0.11,0 0.11,0.01 0.12,0 0.12,0.01 0.13,0 0.13,0 0.13,0 0.14,0 0.15,0 0.14,0 c 1.08,0 1.43,0 1.43,0.77 0,0.03 -0.04,0.49 -0.6,0.49 -0.79,0 -1.73,-0.07 -2.58,-0.11 -0.87,-0.04 -1.9,-0.04 -2.78,-0.04 -0.73,0 -1.67,0.04 -2.4,0.04 -0.74,0 -1.57,0.11 -2.27,0.11 -0.2,0 -0.73,0 -0.73,-0.77 0,-0.49 0.42,-0.49 1.12,-0.49 0.03,0 0.69,0 1.31,-0.07 0.74,-0.07 0.82,-0.14 0.82,-0.49 0,-0.06 0,-0.23 -0.14,-0.76 l -4.64,-18.5 c -0.32,-1.19 -0.4,-1.47 -3.07,-1.47 -0.59,0 -1.04,0 -1.04,-0.74 0,-0.51 0.42,-0.51 1.04,-0.51 h 17.52 c 0.87,0 0.9,0.03 1.19,0.7 0.36,0.94 2.96,7.69 2.96,7.97 0,0.11 -0.07,0.5 -0.59,0.5 -0.42,0 -0.48,-0.19 -0.7,-0.73 -1.31,-3.32 -2.86,-7.19 -9.24,-7.19 h -3.93 c -1.08,0 -1.11,0.05 -1.11,0.36 0,0.03 0,0.2 0.14,0.72 z"
           id="path21608" /><path
           style="fill:#000000;stroke-width:0"
           inkscape:connector-curvature="0"
           d="m 497.85,453.78 0,0 0,0 0.01,0.01 0,0.01 0.01,0.01 0,0.01 0.01,0.02 0.01,0.02 0.01,0.01 0.01,0.03 0.01,0.02 0.01,0.02 0.01,0.03 0.01,0.03 0.01,0.03 0.01,0.02 0.01,0.04 0.02,0.03 0.01,0.03 0.01,0.03 0.01,0.04 0.01,0.03 0.01,0.04 0.01,0.04 0,0.03 0.01,0.04 0.01,0.03 0,0.04 0.01,0.04 0,0.03 0.01,0.04 0,0.04 0,0.03 c 0,0.91 -0.8,1.47 -1.55,1.47 -1.01,0 -1.3,-0.76 -1.42,-1.14 L 491.3,444.2 c -0.11,-0.31 -0.11,-0.38 -0.11,-0.41 0,-0.39 1.05,-0.64 1.08,-0.64 0.22,0 0.27,0.13 0.42,0.42 z"
           id="path21610" /><path
           style="fill:#000000;stroke-width:0"
           inkscape:connector-curvature="0"
           d="m 503.55,421.93 h -1.05 c -0.07,-0.48 -0.32,-2.01 -0.71,-2.26 -0.21,-0.16 -2.3,-0.16 -2.68,-0.16 h -4.87 c 1.64,1.22 3.48,2.61 4.98,3.61 2.24,1.55 4.33,3 4.33,5.64 0,3.19 -3.01,4.95 -6.58,4.95 -3.36,0 -5.83,-1.95 -5.83,-4.39 0,-1.29 1.1,-1.51 1.46,-1.51 0.67,0 1.47,0.45 1.47,1.47 0,0.89 -0.66,1.39 -1.43,1.47 0.69,1.12 2.15,1.87 3.82,1.87 2.4,0 4.42,-1.45 4.42,-3.89 0,-2.09 -1.44,-3.69 -3.36,-5.31 l -6.08,-5.16 c -0.25,-0.22 -0.26,-0.22 -0.3,-0.39 v -0.75 h 11.58 z"
           id="path21612" /><path
           style="fill:#000000;stroke-width:0"
           inkscape:connector-curvature="0"
           d="m 510.67,430.84 0.13,-0.03 0.12,-0.03 0.12,-0.02 0.12,-0.02 0.12,-0.02 0.11,-0.03 0.12,-0.01 0.11,-0.02 0.11,-0.02 0.11,-0.01 0.1,-0.01 0.11,-0.02 0.1,-0.01 0.09,-0.01 0.1,-0.01 0.09,0 0.09,-0.01 0.08,-0.01 0.09,0 0.07,-0.01 0.08,0 0.07,0 0.07,-0.01 0.06,0 0.06,0 0.06,0 0.05,0 0.04,0 0.04,0 0.04,0 0.03,0 0.03,0 c 1.7,0 2.94,0.5 3.59,0.84 0.6,0.3 2.3,1.38 2.3,1.92 0,0.38 -0.28,0.42 -0.36,0.42 -0.04,0 -0.09,0 -0.37,-0.12 -0.94,-0.33 -2.49,-0.67 -4.13,-0.67 -1.42,0 -2.8,0.25 -4.11,0.69 -0.28,0.1 -0.33,0.1 -0.37,0.1 -0.36,0 -0.36,-0.29 -0.36,-0.7 v -7.47 c 0,-0.42 0,-0.75 0.48,-0.75 0.27,0 0.3,0.05 0.52,0.33 0.95,1.09 2.26,1.64 3.97,1.64 1.43,0 2.23,-0.84 2.57,-1.37 0.58,-0.85 0.71,-1.97 0.71,-3.16 0,-1.05 -0.1,-2.44 -1.08,-3.42 -1.11,-1.14 -2.53,-1.22 -3.08,-1.22 -1.62,0 -3.44,0.7 -4.22,2.17 1.05,0.08 1.41,0.83 1.41,1.39 0,0.8 -0.61,1.41 -1.41,1.41 -0.54,0 -1.39,-0.33 -1.39,-1.49 0,-2.43 2.39,-4.5 5.66,-4.5 3.72,0 6.75,2.49 6.75,5.58 0,2.81 -2.42,5.44 -5.88,5.44 -1.57,0 -2.84,-0.41 -3.92,-1.23 z"
           id="path21614" /><path
           style="fill:#000000;stroke-width:0"
           inkscape:connector-curvature="0"
           d="m 527.59,430.84 0.12,-0.03 0.13,-0.03 0.12,-0.02 0.12,-0.02 0.12,-0.02 0.11,-0.03 0.12,-0.01 0.11,-0.02 0.11,-0.02 0.11,-0.01 0.1,-0.01 0.1,-0.02 0.1,-0.01 0.1,-0.01 0.1,-0.01 0.09,0 0.09,-0.01 0.08,-0.01 0.08,0 0.08,-0.01 0.08,0 0.07,0 0.07,-0.01 0.06,0 0.06,0 0.05,0 0.05,0 0.05,0 0.04,0 0.04,0 0.03,0 0.03,0 c 1.7,0 2.94,0.5 3.59,0.84 0.6,0.3 2.3,1.38 2.3,1.92 0,0.38 -0.28,0.42 -0.36,0.42 -0.05,0 -0.09,0 -0.37,-0.12 -0.94,-0.33 -2.49,-0.67 -4.13,-0.67 -1.42,0 -2.8,0.25 -4.11,0.69 -0.28,0.1 -0.33,0.1 -0.38,0.1 -0.35,0 -0.35,-0.29 -0.35,-0.7 v -7.47 c 0,-0.42 0,-0.75 0.48,-0.75 0.27,0 0.3,0.05 0.52,0.33 0.95,1.09 2.26,1.64 3.97,1.64 1.43,0 2.23,-0.84 2.57,-1.37 0.58,-0.85 0.71,-1.97 0.71,-3.16 0,-1.05 -0.1,-2.44 -1.08,-3.42 -1.11,-1.14 -2.53,-1.22 -3.08,-1.22 -1.62,0 -3.44,0.7 -4.22,2.17 1.05,0.08 1.41,0.83 1.41,1.39 0,0.8 -0.61,1.41 -1.41,1.41 -0.55,0 -1.39,-0.33 -1.39,-1.49 0,-2.43 2.39,-4.5 5.66,-4.5 3.71,0 6.75,2.49 6.75,5.58 0,2.81 -2.42,5.44 -5.88,5.44 -1.58,0 -2.84,-0.41 -3.92,-1.23 z"
           id="path21616" /><polyline
           style="fill:#000000;fill-rule:nonzero;stroke-width:0"
           points="462,413 542.76,413 542.76,415.04 462,415.04 "
           id="polyline21618" /><path
           style="fill:#000000;stroke-width:0"
           inkscape:connector-curvature="0"
           d="m 501.52,396.12 0.25,0 0.25,-0.02 0.24,-0.03 0.24,-0.04 0.23,-0.05 0.23,-0.06 0.22,-0.07 0.21,-0.08 0.21,-0.1 0.2,-0.1 0.2,-0.12 0.19,-0.12 0.18,-0.14 0.18,-0.15 0.16,-0.16 0.16,-0.17 0.15,-0.18 0.15,-0.19 0.13,-0.21 0.13,-0.21 0.11,-0.22 0.11,-0.24 0.1,-0.25 0.09,-0.25 0.08,-0.27 0.07,-0.28 0.06,-0.29 0.05,-0.3 0.04,-0.31 0.03,-0.32 0.01,-0.33 0.01,-0.35 c 0,-4.33 -2.52,-5.61 -4.53,-5.61 -1.39,0 -4.47,0.38 -5.93,2.44 1.63,0.06 2.02,1.22 2.02,1.95 0,1.11 -0.84,1.91 -1.92,1.91 -0.97,0 -1.95,-0.59 -1.95,-2.02 0,-3.28 3.62,-5.4 7.84,-5.4 4.84,0 8.19,3.25 8.19,6.73 0,2.72 -2.22,5.44 -6.07,6.24 3.66,1.32 4.99,3.93 4.99,6.06 0,2.75 -3.17,4.81 -7.03,4.81 -3.88,0 -6.83,-1.89 -6.83,-4.67 0,-1.19 0.76,-1.84 1.81,-1.84 1.08,0 1.77,0.79 1.77,1.76 0,1.02 -0.69,1.75 -1.77,1.81 1.22,1.55 3.61,1.93 4.91,1.93 1.56,0 3.76,-0.77 3.76,-3.8 0,-1.47 -0.48,-3.06 -1.39,-4.14 -1.15,-1.33 -2.12,-1.41 -3.87,-1.5 -0.88,-0.08 -0.94,-0.08 -1.11,-0.11 -0.08,0 -0.36,-0.06 -0.36,-0.45 0,-0.49 0.31,-0.49 0.9,-0.49 z"
           id="path21620" /></g>    </g>
    <path
       style="fill:none;stroke:#000000;stroke-width:0.375;stroke-linecap:butt;stroke-linejoin:miter;stroke-miterlimit:4;stroke-opacity:1;stroke-dasharray:none"
       d="m 271.01131,521.02951 -1.25,0"
       id="path23952"
       inkscape:connector-curvature="0" />
    <g
       id="g23954"
       transform="matrix(0.0352336,0,0,0.0352336,360.11831,496.66386)">
      <g
         word-spacing="normal"
         letter-spacing="normal"
         font-size-adjust="none"
         font-stretch="normal"
         font-weight="normal"
         font-variant="normal"
         font-style="normal"
         stroke-miterlimit="10.433"
         xml:space="preserve"
         transform="matrix(2.1259843,0,0,-2.1259843,-372.04725,1578.5433)"
         id="g23956"
         style="font-style:normal;font-variant:normal;font-weight:normal;font-stretch:normal;letter-spacing:normal;word-spacing:normal;text-anchor:start;fill:none;stroke:#000000;stroke-linecap:butt;stroke-linejoin:miter;stroke-miterlimit:10.43299961;stroke-opacity:1;stroke-dasharray:none;stroke-dashoffset:0"><path
           id="path23958"
           d="m 475.88,448.02 0.03,0.11 0.03,0.11 0.02,0.11 0.03,0.1 0.03,0.09 0.03,0.09 0.04,0.09 0.04,0.08 0.04,0.08 0.04,0.07 0.05,0.07 0.06,0.06 0.06,0.06 0.07,0.06 0.07,0.05 0.09,0.04 0.09,0.05 0.1,0.04 0.11,0.04 0.12,0.03 0.07,0.01 0.06,0.02 0.07,0.01 0.08,0.02 0.07,0.01 0.08,0.01 0.08,0.01 0.09,0.01 0.09,0.01 0.09,0.01 0.1,0.01 0.1,0 0.1,0.01 0.11,0.01 0.11,0 0.11,0.01 0.12,0 0.12,0.01 0.13,0 0.13,0 0.13,0 0.14,0 0.15,0 0.14,0 c 1.08,0 1.43,0 1.43,0.77 0,0.03 -0.04,0.49 -0.6,0.49 -0.79,0 -1.73,-0.07 -2.58,-0.11 -0.87,-0.04 -1.9,-0.04 -2.78,-0.04 -0.73,0 -1.67,0.04 -2.4,0.04 -0.74,0 -1.57,0.11 -2.27,0.11 -0.2,0 -0.73,0 -0.73,-0.77 0,-0.49 0.42,-0.49 1.12,-0.49 0.03,0 0.69,0 1.31,-0.07 0.74,-0.07 0.82,-0.14 0.82,-0.49 0,-0.06 0,-0.23 -0.14,-0.76 l -4.64,-18.5 c -0.32,-1.19 -0.4,-1.47 -3.07,-1.47 -0.59,0 -1.04,0 -1.04,-0.74 0,-0.51 0.42,-0.51 1.04,-0.51 h 17.52 c 0.87,0 0.9,0.03 1.19,0.7 0.36,0.94 2.96,7.69 2.96,7.97 0,0.11 -0.07,0.5 -0.59,0.5 -0.42,0 -0.48,-0.19 -0.7,-0.73 -1.31,-3.32 -2.86,-7.19 -9.24,-7.19 h -3.93 c -1.08,0 -1.11,0.05 -1.11,0.36 0,0.03 0,0.2 0.14,0.72 z"
           inkscape:connector-curvature="0"
           style="fill:#000000;stroke-width:0" /><path
           id="path23960"
           d="m 497.85,453.78 0,0 0,0 0.01,0.01 0,0.01 0.01,0.01 0,0.01 0.01,0.02 0.01,0.02 0.01,0.01 0.01,0.03 0.01,0.02 0.01,0.02 0.01,0.03 0.01,0.03 0.01,0.03 0.01,0.02 0.01,0.04 0.02,0.03 0.01,0.03 0.01,0.03 0.01,0.04 0.01,0.03 0.01,0.04 0.01,0.04 0,0.03 0.01,0.04 0.01,0.03 0,0.04 0.01,0.04 0,0.03 0.01,0.04 0,0.04 0,0.03 c 0,0.91 -0.8,1.47 -1.55,1.47 -1.01,0 -1.3,-0.76 -1.42,-1.14 L 491.3,444.2 c -0.11,-0.31 -0.11,-0.38 -0.11,-0.41 0,-0.39 1.05,-0.64 1.08,-0.64 0.22,0 0.27,0.13 0.42,0.42 z"
           inkscape:connector-curvature="0"
           style="fill:#000000;stroke-width:0" /><path
           id="path23962"
           d="m 503.55,421.93 h -1.05 c -0.07,-0.48 -0.32,-2.01 -0.71,-2.26 -0.21,-0.16 -2.3,-0.16 -2.68,-0.16 h -4.87 c 1.64,1.22 3.48,2.61 4.98,3.61 2.24,1.55 4.33,3 4.33,5.64 0,3.19 -3.01,4.95 -6.58,4.95 -3.36,0 -5.83,-1.95 -5.83,-4.39 0,-1.29 1.1,-1.51 1.46,-1.51 0.67,0 1.47,0.45 1.47,1.47 0,0.89 -0.66,1.39 -1.43,1.47 0.69,1.12 2.15,1.87 3.82,1.87 2.4,0 4.42,-1.45 4.42,-3.89 0,-2.09 -1.44,-3.69 -3.36,-5.31 l -6.08,-5.16 c -0.25,-0.22 -0.26,-0.22 -0.3,-0.39 v -0.75 h 11.58 z"
           inkscape:connector-curvature="0"
           style="fill:#000000;stroke-width:0" /><path
           id="path23964"
           d="m 510.67,430.84 0.13,-0.03 0.12,-0.03 0.12,-0.02 0.12,-0.02 0.12,-0.02 0.11,-0.03 0.12,-0.01 0.11,-0.02 0.11,-0.02 0.11,-0.01 0.1,-0.01 0.11,-0.02 0.1,-0.01 0.09,-0.01 0.1,-0.01 0.09,0 0.09,-0.01 0.08,-0.01 0.09,0 0.07,-0.01 0.08,0 0.07,0 0.07,-0.01 0.06,0 0.06,0 0.06,0 0.05,0 0.04,0 0.04,0 0.04,0 0.03,0 0.03,0 c 1.7,0 2.94,0.5 3.59,0.84 0.6,0.3 2.3,1.38 2.3,1.92 0,0.38 -0.28,0.42 -0.36,0.42 -0.04,0 -0.09,0 -0.37,-0.12 -0.94,-0.33 -2.49,-0.67 -4.13,-0.67 -1.42,0 -2.8,0.25 -4.11,0.69 -0.28,0.1 -0.33,0.1 -0.37,0.1 -0.36,0 -0.36,-0.29 -0.36,-0.7 v -7.47 c 0,-0.42 0,-0.75 0.48,-0.75 0.27,0 0.3,0.05 0.52,0.33 0.95,1.09 2.26,1.64 3.97,1.64 1.43,0 2.23,-0.84 2.57,-1.37 0.58,-0.85 0.71,-1.97 0.71,-3.16 0,-1.05 -0.1,-2.44 -1.08,-3.42 -1.11,-1.14 -2.53,-1.22 -3.08,-1.22 -1.62,0 -3.44,0.7 -4.22,2.17 1.05,0.08 1.41,0.83 1.41,1.39 0,0.8 -0.61,1.41 -1.41,1.41 -0.54,0 -1.39,-0.33 -1.39,-1.49 0,-2.43 2.39,-4.5 5.66,-4.5 3.72,0 6.75,2.49 6.75,5.58 0,2.81 -2.42,5.44 -5.88,5.44 -1.57,0 -2.84,-0.41 -3.92,-1.23 z"
           inkscape:connector-curvature="0"
           style="fill:#000000;stroke-width:0" /><path
           id="path23966"
           d="m 527.59,430.84 0.12,-0.03 0.13,-0.03 0.12,-0.02 0.12,-0.02 0.12,-0.02 0.11,-0.03 0.12,-0.01 0.11,-0.02 0.11,-0.02 0.11,-0.01 0.1,-0.01 0.1,-0.02 0.1,-0.01 0.1,-0.01 0.1,-0.01 0.09,0 0.09,-0.01 0.08,-0.01 0.08,0 0.08,-0.01 0.08,0 0.07,0 0.07,-0.01 0.06,0 0.06,0 0.05,0 0.05,0 0.05,0 0.04,0 0.04,0 0.03,0 0.03,0 c 1.7,0 2.94,0.5 3.59,0.84 0.6,0.3 2.3,1.38 2.3,1.92 0,0.38 -0.28,0.42 -0.36,0.42 -0.05,0 -0.09,0 -0.37,-0.12 -0.94,-0.33 -2.49,-0.67 -4.13,-0.67 -1.42,0 -2.8,0.25 -4.11,0.69 -0.28,0.1 -0.33,0.1 -0.38,0.1 -0.35,0 -0.35,-0.29 -0.35,-0.7 v -7.47 c 0,-0.42 0,-0.75 0.48,-0.75 0.27,0 0.3,0.05 0.52,0.33 0.95,1.09 2.26,1.64 3.97,1.64 1.43,0 2.23,-0.84 2.57,-1.37 0.58,-0.85 0.71,-1.97 0.71,-3.16 0,-1.05 -0.1,-2.44 -1.08,-3.42 -1.11,-1.14 -2.53,-1.22 -3.08,-1.22 -1.62,0 -3.44,0.7 -4.22,2.17 1.05,0.08 1.41,0.83 1.41,1.39 0,0.8 -0.61,1.41 -1.41,1.41 -0.55,0 -1.39,-0.33 -1.39,-1.49 0,-2.43 2.39,-4.5 5.66,-4.5 3.71,0 6.75,2.49 6.75,5.58 0,2.81 -2.42,5.44 -5.88,5.44 -1.58,0 -2.84,-0.41 -3.92,-1.23 z"
           inkscape:connector-curvature="0"
           style="fill:#000000;stroke-width:0" /><polyline
           id="polyline23968"
           points="462,413 542.76,413 542.76,415.04 462,415.04 "
           style="fill:#000000;fill-rule:nonzero;stroke-width:0" /><path
           id="path23970"
           d="m 501.52,396.12 0.25,0 0.25,-0.02 0.24,-0.03 0.24,-0.04 0.23,-0.05 0.23,-0.06 0.22,-0.07 0.21,-0.08 0.21,-0.1 0.2,-0.1 0.2,-0.12 0.19,-0.12 0.18,-0.14 0.18,-0.15 0.16,-0.16 0.16,-0.17 0.15,-0.18 0.15,-0.19 0.13,-0.21 0.13,-0.21 0.11,-0.22 0.11,-0.24 0.1,-0.25 0.09,-0.25 0.08,-0.27 0.07,-0.28 0.06,-0.29 0.05,-0.3 0.04,-0.31 0.03,-0.32 0.01,-0.33 0.01,-0.35 c 0,-4.33 -2.52,-5.61 -4.53,-5.61 -1.39,0 -4.47,0.38 -5.93,2.44 1.63,0.06 2.02,1.22 2.02,1.95 0,1.11 -0.84,1.91 -1.92,1.91 -0.97,0 -1.95,-0.59 -1.95,-2.02 0,-3.28 3.62,-5.4 7.84,-5.4 4.84,0 8.19,3.25 8.19,6.73 0,2.72 -2.22,5.44 -6.07,6.24 3.66,1.32 4.99,3.93 4.99,6.06 0,2.75 -3.17,4.81 -7.03,4.81 -3.88,0 -6.83,-1.89 -6.83,-4.67 0,-1.19 0.76,-1.84 1.81,-1.84 1.08,0 1.77,0.79 1.77,1.76 0,1.02 -0.69,1.75 -1.77,1.81 1.22,1.55 3.61,1.93 4.91,1.93 1.56,0 3.76,-0.77 3.76,-3.8 0,-1.47 -0.48,-3.06 -1.39,-4.14 -1.15,-1.33 -2.12,-1.41 -3.87,-1.5 -0.88,-0.08 -0.94,-0.08 -1.11,-0.11 -0.08,0 -0.36,-0.06 -0.36,-0.45 0,-0.49 0.31,-0.49 0.9,-0.49 z"
           inkscape:connector-curvature="0"
           style="fill:#000000;stroke-width:0" /></g>    </g>
    <g
       transform="matrix(0.0352336,0,0,0.0352336,417.96291,496.66386)"
       id="g23972">
      <g
         style="font-style:normal;font-variant:normal;font-weight:normal;font-stretch:normal;letter-spacing:normal;word-spacing:normal;text-anchor:start;fill:none;stroke:#000000;stroke-linecap:butt;stroke-linejoin:miter;stroke-miterlimit:10.43299961;stroke-opacity:1;stroke-dasharray:none;stroke-dashoffset:0"
         id="g23974"
         transform="matrix(2.1259843,0,0,-2.1259843,-372.04725,1578.5433)"
         xml:space="preserve"
         stroke-miterlimit="10.433"
         font-style="normal"
         font-variant="normal"
         font-weight="normal"
         font-stretch="normal"
         font-size-adjust="none"
         letter-spacing="normal"
         word-spacing="normal"><path
           style="fill:#000000;stroke-width:0"
           inkscape:connector-curvature="0"
           d="m 475.88,448.02 0.03,0.11 0.03,0.11 0.02,0.11 0.03,0.1 0.03,0.09 0.03,0.09 0.04,0.09 0.04,0.08 0.04,0.08 0.04,0.07 0.05,0.07 0.06,0.06 0.06,0.06 0.07,0.06 0.07,0.05 0.09,0.04 0.09,0.05 0.1,0.04 0.11,0.04 0.12,0.03 0.07,0.01 0.06,0.02 0.07,0.01 0.08,0.02 0.07,0.01 0.08,0.01 0.08,0.01 0.09,0.01 0.09,0.01 0.09,0.01 0.1,0.01 0.1,0 0.1,0.01 0.11,0.01 0.11,0 0.11,0.01 0.12,0 0.12,0.01 0.13,0 0.13,0 0.13,0 0.14,0 0.15,0 0.14,0 c 1.08,0 1.43,0 1.43,0.77 0,0.03 -0.04,0.49 -0.6,0.49 -0.79,0 -1.73,-0.07 -2.58,-0.11 -0.87,-0.04 -1.9,-0.04 -2.78,-0.04 -0.73,0 -1.67,0.04 -2.4,0.04 -0.74,0 -1.57,0.11 -2.27,0.11 -0.2,0 -0.73,0 -0.73,-0.77 0,-0.49 0.42,-0.49 1.12,-0.49 0.03,0 0.69,0 1.31,-0.07 0.74,-0.07 0.82,-0.14 0.82,-0.49 0,-0.06 0,-0.23 -0.14,-0.76 l -4.64,-18.5 c -0.32,-1.19 -0.4,-1.47 -3.07,-1.47 -0.59,0 -1.04,0 -1.04,-0.74 0,-0.51 0.42,-0.51 1.04,-0.51 h 17.52 c 0.87,0 0.9,0.03 1.19,0.7 0.36,0.94 2.96,7.69 2.96,7.97 0,0.11 -0.07,0.5 -0.59,0.5 -0.42,0 -0.48,-0.19 -0.7,-0.73 -1.31,-3.32 -2.86,-7.19 -9.24,-7.19 h -3.93 c -1.08,0 -1.11,0.05 -1.11,0.36 0,0.03 0,0.2 0.14,0.72 z"
           id="path23976" /><path
           style="fill:#000000;stroke-width:0"
           inkscape:connector-curvature="0"
           d="m 497.85,453.78 0,0 0,0 0.01,0.01 0,0.01 0.01,0.01 0,0.01 0.01,0.02 0.01,0.02 0.01,0.01 0.01,0.03 0.01,0.02 0.01,0.02 0.01,0.03 0.01,0.03 0.01,0.03 0.01,0.02 0.01,0.04 0.02,0.03 0.01,0.03 0.01,0.03 0.01,0.04 0.01,0.03 0.01,0.04 0.01,0.04 0,0.03 0.01,0.04 0.01,0.03 0,0.04 0.01,0.04 0,0.03 0.01,0.04 0,0.04 0,0.03 c 0,0.91 -0.8,1.47 -1.55,1.47 -1.01,0 -1.3,-0.76 -1.42,-1.14 L 491.3,444.2 c -0.11,-0.31 -0.11,-0.38 -0.11,-0.41 0,-0.39 1.05,-0.64 1.08,-0.64 0.22,0 0.27,0.13 0.42,0.42 z"
           id="path23978" /><path
           style="fill:#000000;stroke-width:0"
           inkscape:connector-curvature="0"
           d="m 503.55,421.93 h -1.05 c -0.07,-0.48 -0.32,-2.01 -0.71,-2.26 -0.21,-0.16 -2.3,-0.16 -2.68,-0.16 h -4.87 c 1.64,1.22 3.48,2.61 4.98,3.61 2.24,1.55 4.33,3 4.33,5.64 0,3.19 -3.01,4.95 -6.58,4.95 -3.36,0 -5.83,-1.95 -5.83,-4.39 0,-1.29 1.1,-1.51 1.46,-1.51 0.67,0 1.47,0.45 1.47,1.47 0,0.89 -0.66,1.39 -1.43,1.47 0.69,1.12 2.15,1.87 3.82,1.87 2.4,0 4.42,-1.45 4.42,-3.89 0,-2.09 -1.44,-3.69 -3.36,-5.31 l -6.08,-5.16 c -0.25,-0.22 -0.26,-0.22 -0.3,-0.39 v -0.75 h 11.58 z"
           id="path23980" /><path
           style="fill:#000000;stroke-width:0"
           inkscape:connector-curvature="0"
           d="m 510.67,430.84 0.13,-0.03 0.12,-0.03 0.12,-0.02 0.12,-0.02 0.12,-0.02 0.11,-0.03 0.12,-0.01 0.11,-0.02 0.11,-0.02 0.11,-0.01 0.1,-0.01 0.11,-0.02 0.1,-0.01 0.09,-0.01 0.1,-0.01 0.09,0 0.09,-0.01 0.08,-0.01 0.09,0 0.07,-0.01 0.08,0 0.07,0 0.07,-0.01 0.06,0 0.06,0 0.06,0 0.05,0 0.04,0 0.04,0 0.04,0 0.03,0 0.03,0 c 1.7,0 2.94,0.5 3.59,0.84 0.6,0.3 2.3,1.38 2.3,1.92 0,0.38 -0.28,0.42 -0.36,0.42 -0.04,0 -0.09,0 -0.37,-0.12 -0.94,-0.33 -2.49,-0.67 -4.13,-0.67 -1.42,0 -2.8,0.25 -4.11,0.69 -0.28,0.1 -0.33,0.1 -0.37,0.1 -0.36,0 -0.36,-0.29 -0.36,-0.7 v -7.47 c 0,-0.42 0,-0.75 0.48,-0.75 0.27,0 0.3,0.05 0.52,0.33 0.95,1.09 2.26,1.64 3.97,1.64 1.43,0 2.23,-0.84 2.57,-1.37 0.58,-0.85 0.71,-1.97 0.71,-3.16 0,-1.05 -0.1,-2.44 -1.08,-3.42 -1.11,-1.14 -2.53,-1.22 -3.08,-1.22 -1.62,0 -3.44,0.7 -4.22,2.17 1.05,0.08 1.41,0.83 1.41,1.39 0,0.8 -0.61,1.41 -1.41,1.41 -0.54,0 -1.39,-0.33 -1.39,-1.49 0,-2.43 2.39,-4.5 5.66,-4.5 3.72,0 6.75,2.49 6.75,5.58 0,2.81 -2.42,5.44 -5.88,5.44 -1.57,0 -2.84,-0.41 -3.92,-1.23 z"
           id="path23982" /><path
           style="fill:#000000;stroke-width:0"
           inkscape:connector-curvature="0"
           d="m 527.59,430.84 0.12,-0.03 0.13,-0.03 0.12,-0.02 0.12,-0.02 0.12,-0.02 0.11,-0.03 0.12,-0.01 0.11,-0.02 0.11,-0.02 0.11,-0.01 0.1,-0.01 0.1,-0.02 0.1,-0.01 0.1,-0.01 0.1,-0.01 0.09,0 0.09,-0.01 0.08,-0.01 0.08,0 0.08,-0.01 0.08,0 0.07,0 0.07,-0.01 0.06,0 0.06,0 0.05,0 0.05,0 0.05,0 0.04,0 0.04,0 0.03,0 0.03,0 c 1.7,0 2.94,0.5 3.59,0.84 0.6,0.3 2.3,1.38 2.3,1.92 0,0.38 -0.28,0.42 -0.36,0.42 -0.05,0 -0.09,0 -0.37,-0.12 -0.94,-0.33 -2.49,-0.67 -4.13,-0.67 -1.42,0 -2.8,0.25 -4.11,0.69 -0.28,0.1 -0.33,0.1 -0.38,0.1 -0.35,0 -0.35,-0.29 -0.35,-0.7 v -7.47 c 0,-0.42 0,-0.75 0.48,-0.75 0.27,0 0.3,0.05 0.52,0.33 0.95,1.09 2.26,1.64 3.97,1.64 1.43,0 2.23,-0.84 2.57,-1.37 0.58,-0.85 0.71,-1.97 0.71,-3.16 0,-1.05 -0.1,-2.44 -1.08,-3.42 -1.11,-1.14 -2.53,-1.22 -3.08,-1.22 -1.62,0 -3.44,0.7 -4.22,2.17 1.05,0.08 1.41,0.83 1.41,1.39 0,0.8 -0.61,1.41 -1.41,1.41 -0.55,0 -1.39,-0.33 -1.39,-1.49 0,-2.43 2.39,-4.5 5.66,-4.5 3.71,0 6.75,2.49 6.75,5.58 0,2.81 -2.42,5.44 -5.88,5.44 -1.58,0 -2.84,-0.41 -3.92,-1.23 z"
           id="path23984" /><polyline
           style="fill:#000000;fill-rule:nonzero;stroke-width:0"
           points="462,413 542.76,413 542.76,415.04 462,415.04 "
           id="polyline23986" /><path
           style="fill:#000000;stroke-width:0"
           inkscape:connector-curvature="0"
           d="m 501.52,396.12 0.25,0 0.25,-0.02 0.24,-0.03 0.24,-0.04 0.23,-0.05 0.23,-0.06 0.22,-0.07 0.21,-0.08 0.21,-0.1 0.2,-0.1 0.2,-0.12 0.19,-0.12 0.18,-0.14 0.18,-0.15 0.16,-0.16 0.16,-0.17 0.15,-0.18 0.15,-0.19 0.13,-0.21 0.13,-0.21 0.11,-0.22 0.11,-0.24 0.1,-0.25 0.09,-0.25 0.08,-0.27 0.07,-0.28 0.06,-0.29 0.05,-0.3 0.04,-0.31 0.03,-0.32 0.01,-0.33 0.01,-0.35 c 0,-4.33 -2.52,-5.61 -4.53,-5.61 -1.39,0 -4.47,0.38 -5.93,2.44 1.63,0.06 2.02,1.22 2.02,1.95 0,1.11 -0.84,1.91 -1.92,1.91 -0.97,0 -1.95,-0.59 -1.95,-2.02 0,-3.28 3.62,-5.4 7.84,-5.4 4.84,0 8.19,3.25 8.19,6.73 0,2.72 -2.22,5.44 -6.07,6.24 3.66,1.32 4.99,3.93 4.99,6.06 0,2.75 -3.17,4.81 -7.03,4.81 -3.88,0 -6.83,-1.89 -6.83,-4.67 0,-1.19 0.76,-1.84 1.81,-1.84 1.08,0 1.77,0.79 1.77,1.76 0,1.02 -0.69,1.75 -1.77,1.81 1.22,1.55 3.61,1.93 4.91,1.93 1.56,0 3.76,-0.77 3.76,-3.8 0,-1.47 -0.48,-3.06 -1.39,-4.14 -1.15,-1.33 -2.12,-1.41 -3.87,-1.5 -0.88,-0.08 -0.94,-0.08 -1.11,-0.11 -0.08,0 -0.36,-0.06 -0.36,-0.45 0,-0.49 0.31,-0.49 0.9,-0.49 z"
           id="path23988" /></g>    </g>
    <text
       xml:space="preserve"
       style="font-size:15px;font-style:normal;font-variant:normal;font-weight:normal;font-stretch:normal;line-height:125%;letter-spacing:0px;word-spacing:0px;fill:#000000;fill-opacity:1;stroke:none;font-family:DejaVu Sans;-inkscape-font-specification:DejaVu Sans"
       x="341.32382"
       y="555.77753"
       id="text28705"
       sodipodi:linespacing="125%"><tspan
         sodipodi:role="line"
         id="tspan28707"
         x="341.32382"
         y="555.77753"
         style="font-size:4px">Frame 1</tspan></text>
    <text
       sodipodi:linespacing="125%"
       id="text28709"
       y="555.77753"
       x="399.32382"
       style="font-size:15px;font-style:normal;font-variant:normal;font-weight:normal;font-stretch:normal;line-height:125%;letter-spacing:0px;word-spacing:0px;fill:#000000;fill-opacity:1;stroke:none;font-family:DejaVu Sans;-inkscape-font-specification:DejaVu Sans"
       xml:space="preserve"><tspan
         style="font-size:4px"
         y="555.77753"
         x="399.32382"
         id="tspan28711"
         sodipodi:role="line">Frame 2</tspan></text>
    <text
       xml:space="preserve"
       style="font-size:15px;font-style:normal;font-variant:normal;font-weight:normal;font-stretch:normal;line-height:125%;letter-spacing:0px;word-spacing:0px;fill:#000000;fill-opacity:1;stroke:none;font-family:DejaVu Sans;-inkscape-font-specification:DejaVu Sans"
       x="457.32382"
       y="555.77753"
       id="text28713"
       sodipodi:linespacing="125%"><tspan
         sodipodi:role="line"
         id="tspan28715"
         x="457.32382"
         y="555.77753"
         style="font-size:4px">Frame 3</tspan></text>
    <text
       sodipodi:linespacing="125%"
       id="text28717"
       y="555.77753"
       x="277.96542"
       style="font-size:15px;font-style:normal;font-variant:normal;font-weight:normal;font-stretch:normal;line-height:125%;letter-spacing:0px;word-spacing:0px;fill:#000000;fill-opacity:1;stroke:none;font-family:DejaVu Sans;-inkscape-font-specification:DejaVu Sans"
       xml:space="preserve"><tspan
         style="font-size:4px"
         y="555.77753"
         x="277.96542"
         id="tspan28719"
         sodipodi:role="line">Summe</tspan></text>
  </g>
</svg>
