<?xml version="1.0" encoding="UTF-8" standalone="no"?>
<!-- Created with Inkscape (http://www.inkscape.org/) -->

<svg
   xmlns:dc="http://purl.org/dc/elements/1.1/"
   xmlns:cc="http://creativecommons.org/ns#"
   xmlns:rdf="http://www.w3.org/1999/02/22-rdf-syntax-ns#"
   xmlns:svg="http://www.w3.org/2000/svg"
   xmlns="http://www.w3.org/2000/svg"
   xmlns:sodipodi="http://sodipodi.sourceforge.net/DTD/sodipodi-0.dtd"
   xmlns:inkscape="http://www.inkscape.org/namespaces/inkscape"
   width="975"
   height="225"
   id="svg2"
   version="1.1"
   inkscape:version="0.48.4 r9939"
   sodipodi:docname="fiducial_panel.svg">
  <defs
     id="defs4" />
  <sodipodi:namedview
     id="base"
     pagecolor="#ffffff"
     bordercolor="#666666"
     borderopacity="1.0"
     inkscape:pageopacity="0.0"
     inkscape:pageshadow="2"
     inkscape:zoom="0.69999999"
     inkscape:cx="416.90514"
     inkscape:cy="110.19327"
     inkscape:document-units="px"
     inkscape:current-layer="layer1"
     showgrid="false"
     fit-margin-top="0"
     fit-margin-left="0"
     fit-margin-right="0"
     fit-margin-bottom="0"
     inkscape:window-width="1125"
     inkscape:window-height="772"
     inkscape:window-x="1680"
     inkscape:window-y="27"
     inkscape:window-maximized="0" />
  <metadata
     id="metadata7">
    <rdf:RDF>
      <cc:Work
         rdf:about="">
        <dc:format>image/svg+xml</dc:format>
        <dc:type
           rdf:resource="http://purl.org/dc/dcmitype/StillImage" />
        <dc:title />
      </cc:Work>
    </rdf:RDF>
  </metadata>
  <g
     inkscape:label="Layer 1"
     inkscape:groupmode="layer"
     id="layer1"
     transform="translate(-38.21429,-251.64788)">
    <path
       style="fill:#000000"
       d="m 0,0 0,50 0,50 50,0 50,0 0,-50 L 100,0 50,0 0,0 z m 125,0 0,50 0,50 50,0 50,0 0,-50 0,-50 -50,0 -50,0 z m 125,0 0,50 0,50 50,0 50,0 0,-50 0,-50 -50,0 -50,0 z m 125,0 0,50 0,50 50,0 50,0 0,-50 0,-50 -50,0 -50,0 z m 125,0 0,50 0,50 50,0 50,0 0,-50 0,-50 -50,0 -50,0 z m 125,0 0,50 0,50 50,0 50,0 0,-50 0,-50 -50,0 -50,0 z m 125,0 0,50 0,50 50,0 50,0 0,-50 0,-50 -50,0 -50,0 z m 125,0 0,50 0,50 50,0 50,0 0,-50 0,-50 -50,0 -50,0 z m -838,25 12,0 12,0 0,6 0,6 6.5,0 6.5,0 0,6 0,6 -6.5,0 -6.5,0 0,6 0,6 6.5,0 6.5,0 0,6.5 0,6.5 -18.5,0 -18.5,0 0,-6.5 0,-6.5 -6,0 -6,0 0,-6 0,-6 6,0 6,0 0,-12 0,-12 z m 0,24 0,6 0,6 6,0 6,0 0,-6 0,-6 -6,0 -6,0 z m 125,-24 6,0 6,0 0,6 0,6 -6,0 -6,0 0,12 0,12 6,0 6,0 0,-6 0,-6 12.5,0 12.5,0 0,12.5 0,12.5 -18.5,0 -18.5,0 0,-6.5 0,-6.5 -6,0 -6,0 0,-12 0,-12 6,0 6,0 0,-6 0,-6 z m 113,0 6,0 6,0 0,6 0,6 -6,0 -6,0 0,-6 0,-6 z m 125,0 12,0 12,0 0,6 0,6 6,0 6,0 0,-6 0,-6 6.5,0 6.5,0 0,6 0,6 -6.5,0 -6.5,0 0,12 0,12 6.5,0 6.5,0 0,6.5 0,6.5 -6.5,0 -6.5,0 0,-6.5 0,-6.5 -12,0 -12,0 0,6.5 0,6.5 -6,0 -6,0 0,-6.5 0,-6.5 6,0 6,0 0,-6 0,-6 -6,0 -6,0 0,-12 0,-12 z m 12,24 6,0 6,0 0,-6 0,-6 -6,0 -6,0 0,6 0,6 z m 113,-24 12,0 12,0 0,12 0,12 6,0 6,0 0,-6 0,-6 6.5,0 6.5,0 0,6 0,6 -6.5,0 -6.5,0 0,6 0,6 6.5,0 6.5,0 0,6.5 0,6.5 -18.5,0 -18.5,0 0,-6.5 0,-6.5 6,0 6,0 0,-6 0,-6 -6,0 -6,0 0,-6 0,-6 -6,0 -6,0 0,-6 0,-6 z m 161,0 6.5,0 6.5,0 0,24.5 0,24.5 -24.5,0 -24.5,0 0,-6.5 0,-6.5 6,0 6,0 0,-6 0,-6 12,0 12,0 0,-12 0,-12 z m 89,0 12,0 12,0 0,6 0,6 6,0 6,0 0,12 0,12 6.5,0 6.5,0 0,6.5 0,6.5 -12.5,0 -12.5,0 0,-6.5 0,-6.5 -12,0 -12,0 0,-6 0,-6 12,0 12,0 0,-6 0,-6 -12,0 -12,0 0,-6 0,-6 z m 125,0 6,0 6,0 0,12 0,12 6,0 6,0 0,6 0,6 -6,0 -6,0 0,-6 0,-6 -6,0 -6,0 0,-12 0,-12 z m 36,0 6.5,0 6.5,0 0,6 0,6 -6.5,0 -6.5,0 0,-6 0,-6 z m -637,12 6,0 6,0 0,6 0,6 6.5,0 6.5,0 0,12.5 0,12.5 -12.5,0 -12.5,0 0,-18.5 0,-18.5 z m 637,12 6.5,0 6.5,0 0,12.5 0,12.5 -6.5,0 -6.5,0 0,-12.5 0,-12.5 z m -936,76 0,50 0,50 50,0 50,0 0,-50 0,-50 -50,0 -50,0 z m 125,0 0,50 0,50 50,0 50,0 0,-50 0,-50 -50,0 -50,0 z m 125,0 0,50 0,50 50,0 50,0 0,-50 0,-50 -50,0 -50,0 z m 125,0 0,50 0,50 50,0 50,0 0,-50 0,-50 -50,0 -50,0 z m 125,0 0,50 0,50 50,0 50,0 0,-50 0,-50 -50,0 -50,0 z m 125,0 0,50 0,50 50,0 50,0 0,-50 0,-50 -50,0 -50,0 z m 125,0 0,50 0,50 50,0 50,0 0,-50 0,-50 -50,0 -50,0 z m 125,0 0,50 0,50 50,0 50,0 0,-50 0,-50 -50,0 -50,0 z m -850,25 18,0 18,0 0,6 0,6 -18,0 -18,0 0,-6 0,-6 z m 125,0 6,0 6,0 0,12 0,12 -6,0 -6,0 0,-12 0,-12 z m 24,0 12.5,0 12.5,0 0,6 0,6 -12.5,0 -12.5,0 0,-6 0,-6 z m 113,0 6,0 6,0 0,6 0,6 -6,0 -6,0 0,-6 0,-6 z m 24,0 6.5,0 6.5,0 0,6 0,6 -6.5,0 -6.5,0 0,-6 0,-6 z m 89,0 24.5,0 24.5,0 0,12 0,12 -6.5,0 -6.5,0 0,6 0,6 6.5,0 6.5,0 0,6.5 0,6.5 -6.5,0 -6.5,0 0,-6.5 0,-6.5 -12,0 -12,0 0,6.5 0,6.5 -6,0 -6,0 0,-12.5 0,-12.5 12,0 12,0 0,-6 0,-6 -12,0 -12,0 0,-6 0,-6 z m 125,0 18,0 18,0 0,12 0,12 -6,0 -6,0 0,6 0,6 6,0 6,0 0,6.5 0,6.5 -6,0 -6,0 0,-6.5 0,-6.5 -12,0 -12,0 0,-18 0,-18 z m 125,0 18,0 18,0 0,6 0,6 6.5,0 6.5,0 0,12 0,12 -6.5,0 -6.5,0 0,6.5 0,6.5 -12,0 -12,0 0,-6.5 0,-6.5 -6,0 -6,0 0,-18 0,-18 z m 12,36 6,0 6,0 0,-6 0,-6 6,0 6,0 0,-6 0,-6 -12,0 -12,0 0,12 0,12 z m 113,-36 12,0 12,0 0,6 0,6 6,0 6,0 0,-6 0,-6 6.5,0 6.5,0 0,12 0,12 -6.5,0 -6.5,0 0,12.5 0,12.5 -12,0 -12,0 0,-6.5 0,-6.5 6,0 6,0 0,-6 0,-6 -12,0 -12,0 0,-12 0,-12 z m 137,0 12,0 12,0 0,6 0,6 6.5,0 6.5,0 0,6 0,6 -12.5,0 -12.5,0 0,6 0,6 6,0 6,0 0,6.5 0,6.5 -6,0 -6,0 0,-6.5 0,-6.5 -6,0 -6,0 0,6.5 0,6.5 -6,0 -6,0 0,-6.5 0,-6.5 6,0 6,0 0,-6 0,-6 -6,0 -6,0 0,-6 0,-6 6,0 6,0 0,-6 0,-6 z m -875,24 6,0 6,0 0,6 0,6 -6,0 -6,0 0,6.5 0,6.5 -6,0 -6,0 0,-6.5 0,-6.5 6,0 6,0 0,-6 0,-6 z m 137,0 6,0 6,0 0,6 0,6 6.5,0 6.5,0 0,6.5 0,6.5 -6.5,0 -6.5,0 0,-6.5 0,-6.5 -6,0 -6,0 0,-6 0,-6 z m 113,0 6,0 6,0 0,6 0,6 6,0 6,0 0,6.5 0,6.5 -12,0 -12,0 0,-12.5 0,-12.5 z m -226,12 6.5,0 6.5,0 0,6.5 0,6.5 -6.5,0 -6.5,0 0,-6.5 0,-6.5 z"
       transform="translate(38.21429,251.64788)"
       id="path3031"
       inkscape:connector-curvature="0" />
  </g>
</svg>
