<?xml version="1.0" encoding="UTF-8" standalone="no"?>
<!-- Created with Inkscape (http://www.inkscape.org/) -->

<svg
   xmlns:dc="http://purl.org/dc/elements/1.1/"
   xmlns:cc="http://creativecommons.org/ns#"
   xmlns:rdf="http://www.w3.org/1999/02/22-rdf-syntax-ns#"
   xmlns:svg="http://www.w3.org/2000/svg"
   xmlns="http://www.w3.org/2000/svg"
   xmlns:sodipodi="http://sodipodi.sourceforge.net/DTD/sodipodi-0.dtd"
   xmlns:inkscape="http://www.inkscape.org/namespaces/inkscape"
   width="368.94894"
   height="217.67987"
   id="svg2"
   version="1.1"
   inkscape:version="0.48.4 r9939"
   sodipodi:docname="New document 1">
  <defs
     id="defs4" />
  <sodipodi:namedview
     id="base"
     pagecolor="#ffffff"
     bordercolor="#666666"
     borderopacity="1.0"
     inkscape:pageopacity="0.0"
     inkscape:pageshadow="2"
     inkscape:zoom="1.4"
     inkscape:cx="178.31525"
     inkscape:cy="72.419525"
     inkscape:document-units="px"
     inkscape:current-layer="layer1"
     showgrid="false"
     fit-margin-top="0"
     fit-margin-left="0"
     fit-margin-right="0"
     fit-margin-bottom="0"
     inkscape:window-width="1182"
     inkscape:window-height="841"
     inkscape:window-x="1680"
     inkscape:window-y="27"
     inkscape:window-maximized="0" />
  <metadata
     id="metadata7">
    <rdf:RDF>
      <cc:Work
         rdf:about="">
        <dc:format>image/svg+xml</dc:format>
        <dc:type
           rdf:resource="http://purl.org/dc/dcmitype/StillImage" />
        <dc:title></dc:title>
      </cc:Work>
    </rdf:RDF>
  </metadata>
  <g
     inkscape:label="Layer 1"
     inkscape:groupmode="layer"
     id="layer1"
     transform="translate(-161.5767,-637.86871)">
    <path
       style="fill:#000000"
       d="m 161.5767,746.70865 0,-108.83994 108.67391,0 108.67391,0 0,108.83994 0,108.83993 -108.67391,0 -108.67391,0 0,-108.83993 z m 23.98168,92.23723 0,-7.37898 -7.37898,0 -7.37898,0 0,7.37898 0,7.37898 7.37898,0 7.37898,0 0,-7.37898 z m -11.06847,0.92237 0,-0.92237 0.92238,0 0.92237,0 0,0.92237 0,0.92237 -0.92237,0 -0.92238,0 0,-0.92237 z m 5.53424,-1.84474 0,-0.92238 -1.84475,0 -1.84474,0 0,-0.92237 0,-0.92237 1.84474,0 1.84475,0 0,0.92237 0,0.92237 0.94082,0 0.94082,0 0,0.92238 0,0.92237 -0.94082,0 -0.94082,0 0,-0.92237 z m 42.42913,0.92237 0,-7.37898 -7.37898,0 -7.37898,0 0,7.37898 0,7.37898 7.37898,0 7.37898,0 0,-7.37898 z m -11.06847,2.78556 0,-0.94082 1.84474,0 1.84475,0 0,-0.92237 0,-0.92237 0.92237,0 0.92237,0 0,-0.92237 0,-0.92238 -0.92237,0 -0.92237,0 0,-0.92237 0,-0.92237 0.92237,0 0.92237,0 0,0.92237 0,0.92237 0.94082,0 0.94082,0 0,2.78557 0,2.78556 -0.94082,0 -0.94082,0 0,-0.94082 0,-0.94082 -0.92237,0 -0.92237,0 0,0.94082 0,0.94082 -1.84475,0 -1.84474,0 0,-0.94082 z m 0,-5.55268 0,-0.92237 0.92237,0 0.92237,0 0,0.92237 0,0.92237 -0.92237,0 -0.92237,0 0,-0.92237 z m 47.96336,2.76712 0,-7.37898 -7.37898,0 -7.37898,0 0,7.37898 0,7.37898 7.37898,0 7.37898,0 0,-7.37898 z m -11.06847,2.78556 0,-0.94082 0.92237,0 0.92238,0 0,0.94082 0,0.94082 -0.92238,0 -0.92237,0 0,-0.94082 z m 5.53424,-1.84474 0,-2.78557 0.94082,0 0.94082,0 0,2.78557 0,2.78556 -0.94082,0 -0.94082,0 0,-2.78556 z m 42.42912,-0.94082 0,-7.37898 -7.37897,0 -7.37898,0 0,7.37898 0,7.37898 7.37898,0 7.37897,0 0,-7.37898 z m -11.06846,2.78556 0,-0.94082 1.84474,0 1.84475,0 0,-0.92237 0,-0.92237 -0.92238,0 -0.92237,0 0,-0.92237 0,-0.92238 -0.92237,0 -0.92237,0 0,-0.92237 0,-0.92237 1.84474,0 1.84475,0 0,1.84474 0,1.84475 1.86319,0 1.86319,0 0,0.92237 0,0.92237 -0.94082,0 -0.94082,0 0,0.94082 0,0.94082 -2.76712,0 -2.76711,0 0,-0.94082 z m 47.96336,-2.78556 0,-7.37898 -7.37898,0 -7.37898,0 0,7.37898 0,7.37898 7.37898,0 7.37898,0 0,-7.37898 z m -11.06847,1.86319 0,-1.86319 3.70794,0 3.70793,0 0,1.86319 0,1.86319 -3.70793,0 -3.70794,0 0,-1.86319 z m 0,-4.63031 0,-0.92237 0.92237,0 0.92237,0 0,0.92237 0,0.92237 -0.92237,0 -0.92237,0 0,-0.92237 z m 3.68949,0 0,-0.92237 0.92237,0 0.92237,0 0,0.92237 0,0.92237 -0.92237,0 -0.92237,0 0,-0.92237 z m 44.27387,2.76712 0,-7.37898 -7.37898,0 -7.37898,0 0,7.37898 0,7.37898 7.37898,0 7.37898,0 0,-7.37898 z m -11.06847,0.94082 0,-2.78557 0.92238,0 0.92237,0 0,-0.92237 0,-0.92237 0.92237,0 0.92237,0 0,0.92237 0,0.92237 -0.92237,0 -0.92237,0 0,0.92238 0,0.92237 1.84474,0 1.84475,0 0,-1.84475 0,-1.84474 0.94082,0 0.94082,0 0,1.84474 0,1.84475 -0.94082,0 -0.94082,0 0,0.92237 0,0.92237 0.94082,0 0.94082,0 0,0.94082 0,0.94082 -3.70794,0 -3.70794,0 0,-2.78556 z m -173.406,-37.83572 0,-7.37897 -7.37898,0 -7.37898,0 0,7.37897 0,7.37898 7.37898,0 7.37898,0 0,-7.37898 z m -11.06847,2.78557 0,-0.94082 0.92238,0 0.92237,0 0,-0.92237 0,-0.92238 0.92237,0 0.92237,0 0,0.92238 0,0.92237 1.86319,0 1.8632,0 0,0.94082 0,0.94082 -3.70794,0 -3.70794,0 0,-0.94082 z m 0,-5.55268 0,-0.92237 0.92238,0 0.92237,0 0,0.92237 0,0.92237 -0.92237,0 -0.92238,0 0,-0.92237 z m 3.68949,0 0,-0.92237 1.86319,0 1.8632,0 0,0.92237 0,0.92237 -1.8632,0 -1.86319,0 0,-0.92237 z m 44.27388,2.76711 0,-7.37897 -7.37898,0 -7.37898,0 0,7.37897 0,7.37898 7.37898,0 7.37898,0 0,-7.37898 z m -11.06847,2.78557 0,-0.94082 0.92237,0 0.92237,0 0,-0.92237 0,-0.92238 -0.92237,0 -0.92237,0 0,-0.92237 0,-0.92237 0.92237,0 0.92237,0 0,-0.92237 0,-0.92237 2.78557,0 2.78556,0 0,0.92237 0,0.92237 -1.86319,0 -1.86319,0 0,1.84474 0,1.84475 -0.92238,0 -0.92237,0 0,0.94082 0,0.94082 -0.92237,0 -0.92237,0 0,-0.94082 z m 5.53423,0 0,-0.94082 0.94082,0 0.94082,0 0,0.94082 0,0.94082 -0.94082,0 -0.94082,0 0,-0.94082 z m 42.42913,-2.78557 0,-7.37897 -7.37898,0 -7.37898,0 0,7.37897 0,7.37898 7.37898,0 7.37898,0 0,-7.37898 z m -11.06847,2.78557 0,-0.94082 0.92237,0 0.92238,0 0,-0.92237 0,-0.92238 0.92237,0 0.92237,0 0,0.92238 0,0.92237 0.92237,0 0.92238,0 0,-1.84475 0,-1.84474 -2.76712,0 -2.76712,0 0,-0.92237 0,-0.92237 2.76712,0 2.76712,0 0,0.92237 0,0.92237 0.94082,0 0.94082,0 0,1.84474 0,1.84475 -0.94082,0 -0.94082,0 0,0.94082 0,0.94082 -2.76712,0 -2.76712,0 0,-0.94082 z m 47.96336,-2.78557 0,-7.37897 -7.37897,0 -7.37898,0 0,7.37897 0,7.37898 7.37898,0 7.37897,0 0,-7.37898 z m -7.37897,2.78557 0,-0.94082 1.86319,0 1.86319,0 0,0.94082 0,0.94082 -1.86319,0 -1.86319,0 0,-0.94082 z m -1.84475,-4.63031 0,-1.84474 0.92237,0 0.92238,0 0,1.84474 0,1.84474 -0.92238,0 -0.92237,0 0,-1.84474 z m 46.11862,1.84474 0,-7.37897 -7.37898,0 -7.37898,0 0,7.37897 0,7.37898 7.37898,0 7.37898,0 0,-7.37898 z m -7.37898,2.78557 0,-0.94082 -0.92237,0 -0.92238,0 0,-0.92237 0,-0.92238 0.92238,0 0.92237,0 0,-0.92237 0,-0.92237 -0.92237,0 -0.92238,0 0,-0.92237 0,-0.92237 2.78557,0 2.78556,0 0,0.92237 0,0.92237 -0.94082,0 -0.94082,0 0,1.84474 0,1.84475 0.94082,0 0.94082,0 0,0.94082 0,0.94082 -1.86319,0 -1.86319,0 0,-0.94082 z m 44.27387,-2.78557 0,-7.37897 -7.37898,0 -7.37898,0 0,7.37897 0,7.37898 7.37898,0 7.37898,0 0,-7.37898 z m -11.06847,2.78557 0,-0.94082 1.84475,0 1.84474,0 0,-0.92237 0,-0.92238 0.92238,0 0.92237,0 0,-1.84474 0,-1.84474 0.94082,0 0.94082,0 0,1.84474 0,1.84474 -0.94082,0 -0.94082,0 0,1.8632 0,1.86319 -2.76712,0 -2.76712,0 0,-0.94082 z m 1.84475,-5.55268 0,-0.92237 0.92237,0 0.92237,0 0,0.92237 0,0.92237 -0.92237,0 -0.92237,0 0,-0.92237 z m -46.63515,-52.94417 0,-42.94566 -43.68355,0 -43.68356,0 0,42.94566 0,42.94565 43.68356,0 43.68355,0 0,-42.94565 z m -128.6156,18.81639 0,-7.37898 -7.37898,0 -7.37898,0 0,7.37898 0,7.37898 7.37898,0 7.37898,0 0,-7.37898 z m -7.37898,2.78557 0,-0.94082 0.92237,0 0.92238,0 0,0.94082 0,0.94082 -0.92238,0 -0.92237,0 0,-0.94082 z m -3.68949,-1.8632 0,-0.92237 0.92238,0 0.92237,0 0,0.92237 0,0.92238 -0.92237,0 -0.92238,0 0,-0.92238 z m 5.53424,-1.84474 0,-0.92237 -0.92238,0 -0.92237,0 0,-0.92238 0,-0.92237 1.86319,0 1.8632,0 0,1.84475 0,1.84474 -0.94082,0 -0.94082,0 0,-0.92237 z m -5.53424,-1.84475 0,-0.92237 0.92238,0 0.92237,0 0,0.92237 0,0.92238 -0.92237,0 -0.92238,0 0,-0.92238 z m 47.96337,2.76712 0,-7.37898 -7.37898,0 -7.37898,0 0,7.37898 0,7.37898 7.37898,0 7.37898,0 0,-7.37898 z m -11.06847,0.0185 0,-3.70794 0.92237,0 0.92237,0 0,0.92237 0,0.92238 0.92237,0 0.92238,0 0,-0.92238 0,-0.92237 0.92237,0 0.92237,0 0,0.92237 0,0.92238 0.94082,0 0.94082,0 0,0.92237 0,0.92237 -0.94082,0 -0.94082,0 0,0.92237 0,0.92238 -0.92237,0 -0.92237,0 0,0.94082 0,0.94082 -1.84475,0 -1.84474,0 0,-3.70794 z m 3.68949,0.90392 0,-0.92237 0.92237,0 0.92237,0 0,-0.92237 0,-0.92237 -0.92237,0 -0.92237,0 0,0.92237 0,0.92237 -0.92238,0 -0.92237,0 0,0.92237 0,0.92238 0.92237,0 0.92238,0 0,-0.92238 z m 118.06366,-0.92237 0,-7.37898 -7.37898,0 -7.37898,0 0,7.37898 0,7.37898 7.37898,0 7.37898,0 0,-7.37898 z m -9.22373,1.86319 0,-1.86319 -0.92237,0 -0.92237,0 0,-1.84474 0,-1.84475 3.70794,0 3.70793,0 0,0.92237 0,0.92238 -2.78556,0 -2.78557,0 0,0.92237 0,0.92237 2.78557,0 2.78556,0 0,1.86319 0,1.8632 -2.78556,0 -2.78557,0 0,-1.8632 z m 46.11862,-1.86319 0,-7.37898 -7.37898,0 -7.37898,0 0,7.37898 0,7.37898 7.37898,0 7.37898,0 0,-7.37898 z m -9.22372,0.92237 0,-0.92237 -0.92237,0 -0.92238,0 0,-0.92237 0,-0.92237 0.92238,0 0.92237,0 0,0.92237 0,0.92237 1.84474,0 1.84475,0 0,-1.84474 0,-1.84475 0.94082,0 0.94082,0 0,2.76712 0,2.76712 -2.78557,0 -2.78556,0 0,-0.92238 z m -175.25075,-37.81726 0,-7.37898 -7.37898,0 -7.37898,0 0,7.37898 0,7.37898 7.37898,0 7.37898,0 0,-7.37898 z m -9.22372,1.86319 0,-1.86319 -0.92237,0 -0.92238,0 0,-1.84475 0,-1.84474 0.92238,0 0.92237,0 0,0.92237 0,0.92237 1.84474,0 1.84475,0 0,0.92238 0,0.92237 0.94082,0 0.94082,0 0,1.86319 0,1.86319 -0.94082,0 -0.94082,0 0,-1.86319 0,-1.86319 -0.92238,0 -0.92237,0 0,1.86319 0,1.86319 -0.92237,0 -0.92237,0 0,-1.86319 z m 46.11862,-1.86319 0,-7.37898 -7.37898,0 -7.37898,0 0,7.37898 0,7.37898 7.37898,0 7.37898,0 0,-7.37898 z m -9.22373,0.94082 0,-2.78557 1.84475,0 1.84474,0 0,-0.92237 0,-0.92237 0.94082,0 0.94082,0 0,0.92237 0,0.92237 -0.94082,0 -0.94082,0 0,1.84475 0,1.84474 -0.92237,0 -0.92237,0 0,0.94082 0,0.94082 -0.92238,0 -0.92237,0 0,-2.78556 z m 119.90841,-0.94082 0,-7.37898 -7.37898,0 -7.37898,0 0,7.37898 0,7.37898 7.37898,0 7.37898,0 0,-7.37898 z m -11.06847,1.86319 0,-1.86319 1.84474,0 1.84475,0 0,-0.92237 0,-0.92238 0.92237,0 0.92237,0 0,0.92238 0,0.92237 0.94082,0 0.94082,0 0,0.92237 0,0.92237 -0.94082,0 -0.94082,0 0,0.94082 0,0.94082 -2.76711,0 -2.76712,0 0,-1.86319 z m 5.53423,-0.94082 0,-0.92237 -0.92237,0 -0.92237,0 0,0.92237 0,0.92237 0.92237,0 0.92237,0 0,-0.92237 z m 42.42913,-0.92237 0,-7.37898 -7.37898,0 -7.37898,0 0,7.37898 0,7.37898 7.37898,0 7.37898,0 0,-7.37898 z m -9.22372,2.78556 0,-0.94082 -0.92237,0 -0.92238,0 0,-0.92237 0,-0.92237 1.84475,0 1.84474,0 0,0.92237 0,0.92237 1.8632,0 1.86319,0 0,0.94082 0,0.94082 -2.78557,0 -2.78556,0 0,-0.94082 z m 3.68949,-3.70793 0,-0.92238 -1.84475,0 -1.84474,0 0,-0.92237 0,-0.92237 1.84474,0 1.84475,0 0,0.92237 0,0.92237 0.94082,0 0.94082,0 0,0.92238 0,0.92237 -0.94082,0 -0.94082,0 0,-0.92237 z m -178.94024,-35.97252 0,-7.37898 -7.37898,0 -7.37898,0 0,7.37898 0,7.37897 7.37898,0 7.37898,0 0,-7.37897 z m -11.06847,0.0184 0,-3.70793 0.92238,0 0.92237,0 0,2.76711 0,2.76712 0.92237,0 0.92237,0 0,0.94082 0,0.94082 -1.84474,0 -1.84475,0 0,-3.70794 z m 5.53424,2.76712 0,-0.94082 0.94082,0 0.94082,0 0,0.94082 0,0.94082 -0.94082,0 -0.94082,0 0,-0.94082 z m 0,-4.63031 0,-1.84474 0.94082,0 0.94082,0 0,1.84474 0,1.84475 -0.94082,0 -0.94082,0 0,-1.84475 z m 42.42913,1.84475 0,-7.37898 -7.37898,0 -7.37898,0 0,7.37898 0,7.37897 7.37898,0 7.37898,0 0,-7.37897 z m -11.06847,1.86319 0,-1.86319 0.92237,0 0.92237,0 0,-0.92238 0,-0.92237 0.92237,0 0.92238,0 0,-0.92237 0,-0.92237 0.92237,0 0.92237,0 0,2.76711 0,2.76712 0.94082,0 0.94082,0 0,0.94082 0,0.94082 -1.86319,0 -1.86319,0 0,-1.86319 0,-1.86319 -0.92238,0 -0.92237,0 0,1.86319 0,1.86319 -0.92237,0 -0.92237,0 0,-1.86319 z m 47.96336,-1.86319 0,-7.37898 -7.37898,0 -7.37898,0 0,7.37898 0,7.37897 7.37898,0 7.37898,0 0,-7.37897 z m -5.53423,2.78556 0,-0.94082 -2.76712,0 -2.76712,0 0,-0.92237 0,-0.92237 2.76712,0 2.76712,0 0,-0.92238 0,-0.92237 -2.76712,0 -2.76712,0 0,-0.92237 0,-0.92237 2.76712,0 2.76712,0 0,0.92237 0,0.92237 0.94082,0 0.94082,0 0,2.78556 0,2.78557 -0.94082,0 -0.94082,0 0,-0.94082 z m 42.42912,-2.78556 0,-7.37898 -7.37897,0 -7.37898,0 0,7.37898 0,7.37897 7.37898,0 7.37897,0 0,-7.37897 z m -11.06846,1.86319 0,-1.86319 0.92237,0 0.92237,0 0,0.92237 0,0.92237 1.84475,0 1.84474,0 0,-1.84474 0,-1.84475 -1.84474,0 -1.84475,0 0,-0.92237 0,-0.92237 2.78557,0 2.78556,0 0,3.70793 0,3.70794 -3.70794,0 -3.70793,0 0,-1.86319 z m 47.96336,-1.86319 0,-7.37898 -7.37898,0 -7.37898,0 0,7.37898 0,7.37897 7.37898,0 7.37898,0 0,-7.37897 z m -11.06847,1.86319 0,-1.86319 1.84474,0 1.84475,0 0,1.86319 0,1.86319 -1.84475,0 -1.84474,0 0,-1.86319 z m 5.53423,0.92237 0,-0.94082 0.94082,0 0.94082,0 0,0.94082 0,0.94082 -0.94082,0 -0.94082,0 0,-0.94082 z m -1.84474,-5.55268 0,-0.92237 0.92237,0 0.92237,0 0,0.92237 0,0.92237 -0.92237,0 -0.92237,0 0,-0.92237 z m 44.27387,2.76712 0,-7.37898 -7.37898,0 -7.37898,0 0,7.37898 0,7.37897 7.37898,0 7.37898,0 0,-7.37897 z m -11.06847,2.78556 0,-0.94082 0.92238,0 0.92237,0 0,-0.92237 0,-0.92237 0.92237,0 0.92237,0 0,-1.84475 0,-1.84474 1.8632,0 1.86319,0 0,0.92237 0,0.92237 -0.94082,0 -0.94082,0 0,0.92237 0,0.92238 0.94082,0 0.94082,0 0,0.92237 0,0.92237 -2.78557,0 -2.78556,0 0,0.94082 0,0.94082 -0.92237,0 -0.92238,0 0,-0.94082 z m 0,-5.55268 0,-0.92237 0.92238,0 0.92237,0 0,0.92237 0,0.92237 -0.92237,0 -0.92238,0 0,-0.92237 z m -173.406,-34.12778 0,-7.37898 -7.37898,0 -7.37898,0 0,7.37898 0,7.37898 7.37898,0 7.37898,0 0,-7.37898 z m -9.22372,2.78557 0,-0.94082 0.92237,0 0.92237,0 0,-0.92238 0,-0.92237 -1.84474,0 -1.84475,0 0,-1.84474 0,-1.84475 0.92238,0 0.92237,0 0,0.92237 0,0.92238 0.92237,0 0.92237,0 0,-0.92238 0,-0.92237 1.86319,0 1.8632,0 0,0.92237 0,0.92238 -0.94082,0 -0.94082,0 0,0.92237 0,0.92237 0.94082,0 0.94082,0 0,1.86319 0,1.8632 -0.94082,0 -0.94082,0 0,-0.94082 0,-0.94082 -0.92238,0 -0.92237,0 0,0.94082 0,0.94082 -0.92237,0 -0.92237,0 0,-0.94082 z m 46.11862,-2.78557 0,-7.37898 -7.37898,0 -7.37898,0 0,7.37898 0,7.37898 7.37898,0 7.37898,0 0,-7.37898 z m -11.06847,1.86319 0,-1.86319 0.92237,0 0.92237,0 0,1.86319 0,1.8632 -0.92237,0 -0.92237,0 0,-1.8632 z m 3.68949,0.92238 0,-0.94082 0.92237,0 0.92237,0 0,-0.92238 0,-0.92237 -0.92237,0 -0.92237,0 0,-1.84474 0,-1.84475 0.92237,0 0.92237,0 0,1.84475 0,1.84474 0.94082,0 0.94082,0 0,0.92237 0,0.92238 -0.94082,0 -0.94082,0 0,0.94082 0,0.94082 -0.92237,0 -0.92237,0 0,-0.94082 z m -3.68949,-5.55269 0,-0.92237 0.92237,0 0.92237,0 0,0.92237 0,0.92238 -0.92237,0 -0.92237,0 0,-0.92238 z m 47.96336,2.76712 0,-7.37898 -7.37898,0 -7.37898,0 0,7.37898 0,7.37898 7.37898,0 7.37898,0 0,-7.37898 z m -7.37898,2.78557 0,-0.94082 -1.84474,0 -1.84475,0 0,-0.92238 0,-0.92237 3.70794,0 3.70794,0 0,0.92237 0,0.92238 -0.94082,0 -0.94082,0 0,0.94082 0,0.94082 -0.92238,0 -0.92237,0 0,-0.94082 z m -3.68949,-5.55269 0,-0.92237 3.70794,0 3.70794,0 0,0.92237 0,0.92238 -3.70794,0 -3.70794,0 0,-0.92238 z m 47.96336,2.76712 0,-7.37898 -7.37897,0 -7.37898,0 0,7.37898 0,7.37898 7.37898,0 7.37897,0 0,-7.37898 z m -11.06846,1.86319 0,-1.86319 0.92237,0 0.92237,0 0,-0.92237 0,-0.92237 0.92237,0 0.92238,0 0,-0.92238 0,-0.92237 0.92237,0 0.92237,0 0,1.84475 0,1.84474 0.94082,0 0.94082,0 0,1.86319 0,1.8632 -0.94082,0 -0.94082,0 0,-0.94082 0,-0.94082 -0.92237,0 -0.92237,0 0,0.94082 0,0.94082 -1.84475,0 -1.84474,0 0,-1.8632 z m 47.96336,-1.86319 0,-7.37898 -7.37898,0 -7.37898,0 0,7.37898 0,7.37898 7.37898,0 7.37898,0 0,-7.37898 z m -9.22373,2.78557 0,-0.94082 0.92238,0 0.92237,0 0,0.94082 0,0.94082 -0.92237,0 -0.92238,0 0,-0.94082 z m 3.68949,-0.92238 0,-1.86319 -0.92237,0 -0.92237,0 0,-0.92237 0,-0.92237 0.92237,0 0.92237,0 0,-0.92238 0,-0.92237 0.94082,0 0.94082,0 0,3.70794 0,3.70794 -0.94082,0 -0.94082,0 0,-1.8632 z m -5.53423,-2.78556 0,-0.92237 0.92237,0 0.92237,0 0,0.92237 0,0.92237 -0.92237,0 -0.92237,0 0,-0.92237 z m 47.96336,0.92237 0,-7.37898 -7.37898,0 -7.37898,0 0,7.37898 0,7.37898 7.37898,0 7.37898,0 0,-7.37898 z m -9.22372,2.78557 0,-0.94082 0.92237,0 0.92237,0 0,-1.84475 0,-1.84474 -0.92237,0 -0.92237,0 0,0.92237 0,0.92237 -0.92237,0 -0.92238,0 0,-0.92237 0,-0.92237 0.92238,0 0.92237,0 0,-0.92238 0,-0.92237 0.92237,0 0.92237,0 0,0.92237 0,0.92238 0.92238,0 0.92237,0 0,-0.92238 0,-0.92237 0.94082,0 0.94082,0 0,0.92237 0,0.92238 -0.94082,0 -0.94082,0 0,0.92237 0,0.92237 0.94082,0 0.94082,0 0,0.92237 0,0.92238 -1.86319,0 -1.8632,0 0,0.94082 0,0.94082 -0.92237,0 -0.92237,0 0,-0.94082 z m 28.63044,126.56793 0,-33.20541 32.91024,0 32.91025,0 0,33.20541 0,33.2054 -32.91025,0 -32.91024,0 0,-33.2054 z m 22.17383,18.15229 0,-7.37898 -7.37898,0 -7.37898,0 0,7.37898 0,7.37897 7.37898,0 7.37898,0 0,-7.37897 z m -9.22372,1.86319 0,-1.86319 0.92237,0 0.92237,0 0,0.92237 0,0.92237 0.92237,0 0.92237,0 0,0.94082 0,0.94082 -1.84474,0 -1.84474,0 0,-1.86319 z m 0,-4.63031 0,-0.92237 0.92237,0 0.92237,0 0,0.92237 0,0.92237 -0.92237,0 -0.92237,0 0,-0.92237 z m 3.68948,0 0,-0.92237 0.94082,0 0.94082,0 0,0.92237 0,0.92237 -0.94082,0 -0.94082,0 0,-0.92237 z m 42.42913,2.76712 0,-7.37898 -7.37898,0 -7.37897,0 0,7.37898 0,7.37897 7.37897,0 7.37898,0 0,-7.37897 z m -11.06847,1.86319 0,-1.86319 1.84475,0 1.84474,0 0,-0.92238 0,-0.92237 -1.84474,0 -1.84475,0 0,-0.92237 0,-0.92237 3.70794,0 3.70794,0 0,1.84474 0,1.84475 -0.94082,0 -0.94082,0 0,0.92237 0,0.92237 0.94082,0 0.94082,0 0,0.94082 0,0.94082 -0.94082,0 -0.94082,0 0,-0.94082 0,-0.94082 -1.84475,0 -1.84474,0 0,0.94082 0,0.94082 -0.92237,0 -0.92238,0 0,-1.86319 z m -25.82642,-38.75809 0,-7.37898 -7.37898,0 -7.37898,0 0,7.37898 0,7.37898 7.37898,0 7.37898,0 0,-7.37898 z m -11.06847,2.78557 0,-0.94082 0.92237,0 0.92238,0 0,-0.92238 0,-0.92237 0.92237,0 0.92237,0 0,0.92237 0,0.92238 -0.92237,0 -0.92237,0 0,0.94082 0,0.94082 -0.92238,0 -0.92237,0 0,-0.94082 z m 5.53423,0 0,-0.94082 0.94082,0 0.94082,0 0,0.94082 0,0.94082 -0.94082,0 -0.94082,0 0,-0.94082 z m -5.53423,-5.55269 0,-0.92237 2.76712,0 2.76711,0 0,0.92237 0,0.92238 -2.76711,0 -2.76712,0 0,-0.92238 z m 47.96336,2.76712 0,-7.37898 -7.37898,0 -7.37897,0 0,7.37898 0,7.37898 7.37897,0 7.37898,0 0,-7.37898 z m -5.53423,2.78557 0,-0.94082 -0.92237,0 -0.92238,0 0,-0.92238 0,-0.92237 0.92238,0 0.92237,0 0,0.92237 0,0.92238 0.94082,0 0.94082,0 0,0.94082 0,0.94082 -0.94082,0 -0.94082,0 0,-0.94082 z m -5.53424,-4.63031 0,-1.84475 0.92238,0 0.92237,0 0,1.84475 0,1.84474 -0.92237,0 -0.92238,0 0,-1.84474 z m 3.68949,-0.92238 0,-0.92237 1.8632,0 1.86319,0 0,0.92237 0,0.92238 -1.86319,0 -1.8632,0 0,-0.92238 z m 22.98552,21.50973 0,-33.20541 33.20541,0 33.2054,0 0,33.20541 0,33.2054 -33.2054,0 -33.20541,0 0,-33.2054 z m 21.47283,18.15229 0,-7.37898 -7.37898,0 -7.37898,0 0,7.37898 0,7.37897 7.37898,0 7.37898,0 0,-7.37897 z m -9.22372,2.78556 0,-0.94082 0.92237,0 0.92237,0 0,-0.92237 0,-0.92237 -1.84474,0 -1.84475,0 0,-1.84475 0,-1.84474 1.84475,0 1.84474,0 0,0.92237 0,0.92237 0.92238,0 0.92237,0 0,-0.92237 0,-0.92237 0.94082,0 0.94082,0 0,1.84474 0,1.84475 -0.94082,0 -0.94082,0 0,1.86319 0,1.86319 -1.84475,0 -1.84474,0 0,-0.94082 z m 46.11862,-2.78556 0,-7.37898 -7.37898,0 -7.37898,0 0,7.37898 0,7.37897 7.37898,0 7.37898,0 0,-7.37897 z m -11.06847,2.78556 0,-0.94082 0.92237,0 0.92237,0 0,-0.92237 0,-0.92237 -0.92237,0 -0.92237,0 0,-0.92238 0,-0.92237 0.92237,0 0.92237,0 0,-0.92237 0,-0.92237 1.84475,0 1.84474,0 0,0.92237 0,0.92237 0.94082,0 0.94082,0 0,0.92237 0,0.92238 -1.86319,0 -1.86319,0 0,0.92237 0,0.92237 0.92237,0 0.92237,0 0,0.94082 0,0.94082 -0.92237,0 -0.92237,0 0,-0.94082 0,-0.94082 -0.92238,0 -0.92237,0 0,0.94082 0,0.94082 -0.92237,0 -0.92237,0 0,-0.94082 z m -25.82643,-39.68046 0,-7.37898 -7.37898,0 -7.37898,0 0,7.37898 0,7.37898 7.37898,0 7.37898,0 0,-7.37898 z m -7.37898,2.78557 0,-0.94082 -1.84474,0 -1.84475,0 0,-2.76712 0,-2.76712 2.76712,0 2.76712,0 0,1.84475 0,1.84474 -0.92237,0 -0.92238,0 0,0.92237 0,0.92238 0.92238,0 0.92237,0 0,0.94082 0,0.94082 -0.92237,0 -0.92238,0 0,-0.94082 z m 44.27388,-2.78557 0,-7.37898 -7.37898,0 -7.37898,0 0,7.37898 0,7.37898 7.37898,0 7.37898,0 0,-7.37898 z m -9.22373,2.78557 0,-0.94082 -0.92237,0 -0.92237,0 0,-2.76712 0,-2.76712 2.76711,0 2.76712,0 0,0.92237 0,0.92238 0.94082,0 0.94082,0 0,1.84474 0,1.84475 -0.94082,0 -0.94082,0 0,0.94082 0,0.94082 -1.84474,0 -1.84475,0 0,-0.94082 z m 1.84475,-1.8632 0,-0.92237 0.92237,0 0.92237,0 0,-0.92237 0,-0.92237 -1.84474,0 -1.84475,0 0,1.84474 0,1.84475 0.92237,0 0.92238,0 0,-0.92238 z m -125.66401,-57.00261 0,-32.4675 32.91024,0 32.91025,0 0,32.4675 0,32.46751 -32.91025,0 -32.91024,0 0,-32.46751 z m 22.17383,19.18535 0,-7.37898 -7.37898,0 -7.37898,0 0,7.37898 0,7.37898 7.37898,0 7.37898,0 0,-7.37898 z m -7.37898,0.94082 0,-2.78557 0.92237,0 0.92237,0 0,0.92238 0,0.92237 0.94082,0 0.94082,0 0,1.86319 0,1.86319 -1.86319,0 -1.86319,0 0,-2.78556 z m -3.68949,-3.70794 0,-0.92237 0.92237,0 0.92238,0 0,0.92237 0,0.92237 -0.92238,0 -0.92237,0 0,-0.92237 z m 47.96336,2.76712 0,-7.37898 -7.37898,0 -7.37897,0 0,7.37898 0,7.37898 7.37897,0 7.37898,0 0,-7.37898 z m -11.06847,2.78556 0,-0.94082 0.92238,0 0.92237,0 0,-0.92237 0,-0.92237 -0.92237,0 -0.92238,0 0,-1.84475 0,-1.84474 1.84475,0 1.84474,0 0,0.92237 0,0.92237 0.92238,0 0.92237,0 0,-0.92237 0,-0.92237 0.94082,0 0.94082,0 0,0.92237 0,0.92237 -0.94082,0 -0.94082,0 0,1.84475 0,1.84474 0.94082,0 0.94082,0 0,0.94082 0,0.94082 -0.94082,0 -0.94082,0 0,-0.94082 0,-0.94082 -1.84475,0 -1.84474,0 0,0.94082 0,0.94082 -0.92237,0 -0.92238,0 0,-0.94082 z m 3.68949,-3.70793 0,-0.92238 -0.92237,0 -0.92237,0 0,0.92238 0,0.92237 0.92237,0 0.92237,0 0,-0.92237 z m -29.51591,-35.97252 0,-7.37898 -7.37898,0 -7.37898,0 0,7.37898 0,7.37897 7.37898,0 7.37898,0 0,-7.37897 z m -9.22372,2.78556 0,-0.94082 -0.92238,0 -0.92237,0 0,-0.92237 0,-0.92237 0.92237,0 0.92238,0 0,-1.84475 0,-1.84474 1.84474,0 1.84474,0 0,0.92237 0,0.92237 0.94082,0 0.94082,0 0,0.92237 0,0.92238 -0.94082,0 -0.94082,0 0,0.92237 0,0.92237 0.94082,0 0.94082,0 0,0.94082 0,0.94082 -2.78556,0 -2.78556,0 0,-0.94082 z m 1.84474,-1.86319 0,-0.92237 -0.92237,0 -0.92237,0 0,0.92237 0,0.92237 0.92237,0 0.92237,0 0,-0.92237 z m 44.27387,-0.92237 0,-7.37898 -7.37898,0 -7.37897,0 0,7.37898 0,7.37897 7.37897,0 7.37898,0 0,-7.37897 z m -9.22372,2.78556 0,-0.94082 -0.92237,0 -0.92238,0 0,-1.84474 0,-1.84475 0.92238,0 0.92237,0 0,-0.92237 0,-0.92237 0.92237,0 0.92237,0 0,0.92237 0,0.92237 -0.92237,0 -0.92237,0 0,1.84475 0,1.84474 0.92237,0 0.92237,0 0,-0.92237 0,-0.92237 1.8632,0 1.86319,0 0,1.86319 0,1.86319 -2.78557,0 -2.78556,0 0,-0.94082 z m 24.83026,14.92398 0,-32.4675 33.20541,0 33.2054,0 0,32.4675 0,32.46751 -33.2054,0 -33.20541,0 0,-32.46751 z m 21.47283,19.18535 0,-7.37898 -7.37898,0 -7.37898,0 0,7.37898 0,7.37898 7.37898,0 7.37898,0 0,-7.37898 z m -7.37898,2.78556 0,-0.94082 -1.84474,0 -1.84475,0 0,-0.92237 0,-0.92237 1.84475,0 1.84474,0 0,-0.92237 0,-0.92238 -1.84474,0 -1.84475,0 0,-0.92237 0,-0.92237 1.84475,0 1.84474,0 0,0.92237 0,0.92237 0.92238,0 0.92237,0 0,1.84475 0,1.84474 0.94082,0 0.94082,0 0,0.94082 0,0.94082 -1.8632,0 -1.86319,0 0,-0.94082 z m 44.27388,-2.78556 0,-7.37898 -7.37898,0 -7.37898,0 0,7.37898 0,7.37898 7.37898,0 7.37898,0 0,-7.37898 z m -5.53424,1.86319 0,-1.86319 0.94082,0 0.94082,0 0,1.86319 0,1.86319 -0.94082,0 -0.94082,0 0,-1.86319 z m -3.68949,-0.94082 0,-0.92237 -0.92237,0 -0.92237,0 0,-1.84475 0,-1.84474 0.92237,0 0.92237,0 0,1.84474 0,1.84475 0.92237,0 0.92238,0 0,0.92237 0,0.92237 -0.92238,0 -0.92237,0 0,-0.92237 z m 3.68949,-3.68949 0,-0.92237 0.94082,0 0.94082,0 0,0.92237 0,0.92237 -0.94082,0 -0.94082,0 0,-0.92237 z m -31.36066,-34.12777 0,-7.37898 -7.37898,0 -7.37898,0 0,7.37898 0,7.37897 7.37898,0 7.37898,0 0,-7.37897 z m -9.22372,2.78556 0,-0.94082 0.92237,0 0.92237,0 0,-0.92237 0,-0.92237 -0.92237,0 -0.92237,0 0,-0.92238 0,-0.92237 -0.92237,0 -0.92238,0 0,-0.92237 0,-0.92237 1.84475,0 1.84474,0 0,1.84474 0,1.84475 0.92238,0 0.92237,0 0,-0.92238 0,-0.92237 0.94082,0 0.94082,0 0,0.92237 0,0.92238 -0.94082,0 -0.94082,0 0,0.92237 0,0.92237 0.94082,0 0.94082,0 0,0.94082 0,0.94082 -2.78557,0 -2.78556,0 0,-0.94082 z m 46.11862,-2.78556 0,-7.37898 -7.37898,0 -7.37898,0 0,7.37898 0,7.37897 7.37898,0 7.37898,0 0,-7.37897 z m -11.06847,2.78556 0,-0.94082 0.92237,0 0.92237,0 0,-0.92237 0,-0.92237 1.84475,0 1.84474,0 0,-1.84475 0,-1.84474 0.94082,0 0.94082,0 0,3.70793 0,3.70794 -3.70794,0 -3.70793,0 0,-0.94082 z"
       id="path2996"
       inkscape:connector-curvature="0" />
  </g>
</svg>
