<?xml version="1.0" encoding="UTF-8" standalone="no"?>
<!-- Created with Inkscape (http://www.inkscape.org/) -->

<svg
   xmlns:dc="http://purl.org/dc/elements/1.1/"
   xmlns:cc="http://creativecommons.org/ns#"
   xmlns:rdf="http://www.w3.org/1999/02/22-rdf-syntax-ns#"
   xmlns:svg="http://www.w3.org/2000/svg"
   xmlns="http://www.w3.org/2000/svg"
   xmlns:sodipodi="http://sodipodi.sourceforge.net/DTD/sodipodi-0.dtd"
   xmlns:inkscape="http://www.inkscape.org/namespaces/inkscape"
   width="205.26523"
   height="67.283829"
   id="svg7684"
   version="1.1"
   inkscape:version="0.48.4 r9939"
   sodipodi:docname="New document 7">
  <defs
     id="defs7686" />
  <sodipodi:namedview
     id="base"
     pagecolor="#ffffff"
     bordercolor="#666666"
     borderopacity="1.0"
     inkscape:pageopacity="0.0"
     inkscape:pageshadow="2"
     inkscape:zoom="1.979899"
     inkscape:cx="120.61949"
     inkscape:cy="84.372075"
     inkscape:document-units="px"
     inkscape:current-layer="layer1"
     showgrid="false"
     fit-margin-top="0"
     fit-margin-left="0"
     fit-margin-right="0"
     fit-margin-bottom="0"
     inkscape:window-width="991"
     inkscape:window-height="837"
     inkscape:window-x="1681"
     inkscape:window-y="59"
     inkscape:window-maximized="0" />
  <metadata
     id="metadata7689">
    <rdf:RDF>
      <cc:Work
         rdf:about="">
        <dc:format>image/svg+xml</dc:format>
        <dc:type
           rdf:resource="http://purl.org/dc/dcmitype/StillImage" />
        <dc:title></dc:title>
      </cc:Work>
    </rdf:RDF>
  </metadata>
  <g
     inkscape:label="Layer 1"
     inkscape:groupmode="layer"
     id="layer1"
     transform="translate(-414.51602,-510.15367)">
    <path
       sodipodi:nodetypes="cc"
       inkscape:connector-curvature="0"
       id="path6064"
       d="M 500.20993,532.97069 455.9003,569.8161"
       style="fill:none;stroke:#146430;stroke-width:0.749;stroke-linecap:butt;stroke-linejoin:round;stroke-miterlimit:4;stroke-opacity:1;stroke-dasharray:0.749,2.247;stroke-dashoffset:0" />
    <rect
       y="517.1778"
       x="539.51971"
       height="60"
       width="80"
       id="rect5213"
       style="opacity:0.82186202;fill:#ffffff;stroke:#000000;stroke-width:0.5;stroke-linecap:butt;stroke-linejoin:bevel;stroke-miterlimit:4;stroke-opacity:1;stroke-dasharray:none;stroke-dashoffset:0" />
    <path
       sodipodi:nodetypes="cc"
       style="fill:none;stroke:#146430;stroke-width:0.74947035;stroke-linecap:butt;stroke-linejoin:round;stroke-miterlimit:4;stroke-opacity:1;stroke-dasharray:0.74947035,1.49894071;stroke-dashoffset:0"
       d="m 502.10855,531.20875 -58.89616,4.97456"
       id="path6062"
       inkscape:connector-curvature="0" />
    <path
       inkscape:connector-curvature="0"
       id="path4865-7-0"
       d="m 418.6449,564.24887 4.12902,-9.64639 15.23719,0 15.23721,0 -4.12903,9.64639 -4.12888,9.64657 -15.2372,0 -15.23719,0 4.12888,-9.64657 z m 21.43927,3.66583 0.53673,-1.2541 -1.98084,0 -1.98083,0 0.51611,-1.20586 0.51606,-1.20587 1.98084,0 1.9808,0 0.51621,-1.20569 0.5161,-1.20586 -1.98082,0 -1.98085,0 0.51609,-1.20586 0.51619,-1.20569 -3.80931,0 -3.8093,0 -1.03227,2.41155 -1.0323,2.41155 -1.90463,0 -1.90465,0 -0.51606,1.20587 -0.5161,1.20586 1.90464,0 1.90465,0 -0.53673,1.2541 -0.53686,1.25391 5.79016,0 5.79011,0 0.53686,-1.25391 z m -10.52745,-2.45996 0.51606,-1.20587 1.90467,0 1.90464,0 -0.51605,1.20587 -0.51611,1.20586 -1.90465,0 -1.90465,0 0.51609,-1.20586 z"
       style="fill:#000000" />
    <g
       id="g3853-37-0-0-6-7"
       transform="matrix(-0.64973623,0.25923056,0.25923056,0.64973623,572.05228,383.77087)">
      <path
         style="fill:#646464;fill-opacity:1;stroke:#000000;stroke-width:1.2366389;stroke-linecap:butt;stroke-linejoin:round;stroke-miterlimit:4;stroke-opacity:1;stroke-dasharray:none"
         d="m 159.93657,156.67731 14.42638,-2.83691 0,9.45634 -14.42638,-2.83691"
         id="path3763-9-23-0-0-6-2"
         inkscape:connector-curvature="0" />
      <rect
         style="fill:#646464;fill-opacity:1;stroke:#000000;stroke-width:1.2366389;stroke-linejoin:bevel;stroke-miterlimit:4;stroke-opacity:1;stroke-dasharray:none"
         id="rect2987-6-5-3-8-0-0"
         height="11.198294"
         x="156.93065"
         y="153.04111"
         width="12.138975" />
    </g>
    <text
       sodipodi:linespacing="125%"
       id="text13637-4"
       y="547.57428"
       x="431.9855"
       style="font-size:5.99576283px;font-style:normal;font-variant:normal;font-weight:normal;font-stretch:normal;text-align:center;line-height:125%;letter-spacing:0px;word-spacing:0px;text-anchor:middle;fill:#000000;fill-opacity:1;stroke:none;font-family:DejaVu Sans Mono;-inkscape-font-specification:DejaVu Sans Mono"
       xml:space="preserve"><tspan
         style="font-size:5.99576283px;font-style:normal;font-variant:normal;font-weight:normal;font-stretch:normal;font-family:DejaVu Sans;-inkscape-font-specification:DejaVu Sans"
         y="547.57428"
         x="431.9855"
         id="tspan13639-2"
         sodipodi:role="line">Fiducial</tspan></text>
    <text
       sodipodi:linespacing="125%"
       id="text13641-9"
       y="518.64325"
       x="505.71335"
       style="font-size:5.99576283px;font-style:normal;font-variant:normal;font-weight:normal;font-stretch:normal;text-align:center;line-height:125%;letter-spacing:0px;word-spacing:0px;text-anchor:middle;fill:#000000;fill-opacity:1;stroke:none;font-family:DejaVu Sans;-inkscape-font-specification:DejaVu Sans"
       xml:space="preserve"><tspan
         y="518.64325"
         x="505.71335"
         id="tspan13643-0"
         sodipodi:role="line">Kamera</tspan></text>
    <path
       inkscape:connector-curvature="0"
       id="path6265"
       d="m 570.83249,539.16501 13.67831,-6.25957 10.02439,9.845 10.02428,9.84498 -13.6783,6.25955 -13.67842,6.25957 -10.02428,-9.84499 -10.02439,-9.84499 13.67841,-6.25955 z m 9.93893,17.24454 1.77821,-0.81372 -1.30314,-1.27984 -1.30325,-1.27986 1.7099,-0.78244 1.70979,-0.78246 1.30314,1.27986 1.30313,1.27983 1.70979,-0.78244 1.70979,-0.78244 -1.30314,-1.27984 -1.30313,-1.27985 1.70978,-0.78244 1.70979,-0.78244 -2.50615,-2.46126 -2.50604,-2.46124 -3.41958,1.56488 -3.41958,1.56491 -1.25302,-1.23064 -1.25302,-1.23062 -1.70979,0.78245 -1.7099,0.78246 1.25314,1.2306 1.25302,1.23062 -1.77821,0.81374 -1.77822,0.81376 3.8093,3.74108 3.80929,3.74108 1.7781,-0.81374 z m -4.13047,-9.07837 1.70978,-0.78242 1.25302,1.23061 1.25302,1.23062 -1.70978,0.78244 -1.70979,0.78246 -1.25302,-1.23063 -1.25302,-1.23063 1.70979,-0.78245 z"
       style="fill:#000000" />
    <path
       transform="matrix(0.59059539,0,0,0.59059539,74.383032,405.66767)"
       d="m 819.56681,236.72435 c 0,1.00339 -0.81342,1.81681 -1.81681,1.81681 -1.00339,0 -1.81681,-0.81342 -1.81681,-1.81681 0,-1.00339 0.81342,-1.81681 1.81681,-1.81681 1.00339,0 1.81681,0.81342 1.81681,1.81681 z"
       sodipodi:ry="1.8168052"
       sodipodi:rx="1.8168052"
       sodipodi:cy="236.72435"
       sodipodi:cx="817.75"
       id="path6068"
       style="fill:none;stroke:#0000ff;stroke-width:0.5;stroke-linecap:butt;stroke-linejoin:bevel;stroke-miterlimit:4;stroke-opacity:1;stroke-dasharray:none;stroke-dashoffset:0"
       sodipodi:type="arc" />
    <path
       sodipodi:type="arc"
       style="fill:none;stroke:#0000ff;stroke-width:0.5;stroke-linecap:butt;stroke-linejoin:bevel;stroke-miterlimit:4;stroke-opacity:1;stroke-dasharray:none;stroke-dashoffset:0"
       id="path6070"
       sodipodi:cx="817.75"
       sodipodi:cy="236.72435"
       sodipodi:rx="1.8168052"
       sodipodi:ry="1.8168052"
       d="m 819.56681,236.72435 c 0,1.00339 -0.81342,1.81681 -1.81681,1.81681 -1.00339,0 -1.81681,-0.81342 -1.81681,-1.81681 0,-1.00339 0.81342,-1.81681 1.81681,-1.81681 1.00339,0 1.81681,0.81342 1.81681,1.81681 z"
       transform="matrix(0.59059539,0,0,0.59059539,101.48643,393.15297)" />
    <path
       transform="matrix(0.59059539,0,0,0.59059539,121.51004,412.81896)"
       d="m 819.56681,236.72435 c 0,1.00339 -0.81342,1.81681 -1.81681,1.81681 -1.00339,0 -1.81681,-0.81342 -1.81681,-1.81681 0,-1.00339 0.81342,-1.81681 1.81681,-1.81681 1.00339,0 1.81681,0.81342 1.81681,1.81681 z"
       sodipodi:ry="1.8168052"
       sodipodi:rx="1.8168052"
       sodipodi:cy="236.72435"
       sodipodi:cx="817.75"
       id="path6072"
       style="fill:none;stroke:#0000ff;stroke-width:0.5;stroke-linecap:butt;stroke-linejoin:bevel;stroke-miterlimit:4;stroke-opacity:1;stroke-dasharray:none;stroke-dashoffset:0"
       sodipodi:type="arc" />
    <path
       sodipodi:type="arc"
       style="fill:none;stroke:#0000ff;stroke-width:0.5;stroke-linecap:butt;stroke-linejoin:bevel;stroke-miterlimit:4;stroke-opacity:1;stroke-dasharray:none;stroke-dashoffset:0"
       id="path6074"
       sodipodi:cx="817.75"
       sodipodi:cy="236.72435"
       sodipodi:rx="1.8168052"
       sodipodi:ry="1.8168052"
       d="m 819.56681,236.72435 c 0,1.00339 -0.81342,1.81681 -1.81681,1.81681 -1.00339,0 -1.81681,-0.81342 -1.81681,-1.81681 0,-1.00339 0.81342,-1.81681 1.81681,-1.81681 1.00339,0 1.81681,0.81342 1.81681,1.81681 z"
       transform="matrix(0.59059539,0,0,0.59059539,94.335142,425.19076)" />
    <text
       sodipodi:linespacing="125%"
       id="text6084"
       y="541.68579"
       x="551.04932"
       style="font-size:5.7210331px;font-style:normal;font-variant:normal;font-weight:normal;font-stretch:normal;line-height:125%;letter-spacing:0px;word-spacing:0px;fill:#000000;fill-opacity:1;stroke:none;font-family:DejaVu Sans Mono;-inkscape-font-specification:DejaVu Sans Mono"
       xml:space="preserve"><tspan
         y="541.68579"
         x="551.04932"
         id="tspan6086"
         sodipodi:role="line">e<tspan
   id="tspan6108"
   style="font-size:3.71872401px;baseline-shift:sub">2</tspan></tspan></text>
    <text
       xml:space="preserve"
       style="font-size:5.7210331px;font-style:normal;font-variant:normal;font-weight:normal;font-stretch:normal;line-height:125%;letter-spacing:0px;word-spacing:0px;fill:#000000;fill-opacity:1;stroke:none;font-family:DejaVu Sans Mono;-inkscape-font-specification:DejaVu Sans Mono"
       x="581.08472"
       y="528.81348"
       id="text6090"
       sodipodi:linespacing="125%"><tspan
         sodipodi:role="line"
         id="tspan6092"
         x="581.08472"
         y="528.81348">e<tspan
   style="font-size:3.71872401px;baseline-shift:sub"
   id="tspan6094">1</tspan></tspan></text>
    <text
       sodipodi:linespacing="125%"
       id="text6096"
       y="550.26733"
       x="605.39911"
       style="font-size:5.7210331px;font-style:normal;font-variant:normal;font-weight:normal;font-stretch:normal;line-height:125%;letter-spacing:0px;word-spacing:0px;fill:#000000;fill-opacity:1;stroke:none;font-family:DejaVu Sans Mono;-inkscape-font-specification:DejaVu Sans Mono"
       xml:space="preserve"><tspan
         y="550.26733"
         x="605.39911"
         id="tspan6098"
         sodipodi:role="line">e<tspan
   id="tspan6112"
   style="font-size:3.71872401px;baseline-shift:sub">4</tspan></tspan></text>
    <text
       xml:space="preserve"
       style="font-size:5.7210331px;font-style:normal;font-variant:normal;font-weight:normal;font-stretch:normal;line-height:125%;letter-spacing:0px;word-spacing:0px;fill:#000000;fill-opacity:1;stroke:none;font-family:DejaVu Sans Mono;-inkscape-font-specification:DejaVu Sans Mono"
       x="571.07288"
       y="570.29095"
       id="text6102"
       sodipodi:linespacing="125%"><tspan
         sodipodi:role="line"
         id="tspan6104"
         x="571.07288"
         y="570.29095">e<tspan
   id="tspan6110"
   style="font-size:3.71872401px;baseline-shift:sub">3</tspan></tspan></text>
    <text
       xml:space="preserve"
       style="font-size:5.91366243px;font-style:normal;font-variant:normal;font-weight:normal;font-stretch:normal;text-align:center;line-height:125%;letter-spacing:0px;word-spacing:0px;text-anchor:middle;fill:#000000;fill-opacity:1;stroke:none;font-family:DejaVu Sans;-inkscape-font-specification:DejaVu Sans"
       x="579.63074"
       y="514.64667"
       id="text6114"
       sodipodi:linespacing="125%"><tspan
         sodipodi:role="line"
         id="tspan6116"
         x="579.63074"
         y="514.64667">Aus Sicht der Kamera</tspan></text>
    <text
       xml:space="preserve"
       style="font-size:5.99576283px;font-style:normal;font-variant:normal;font-weight:normal;font-stretch:normal;text-align:center;line-height:125%;letter-spacing:0px;word-spacing:0px;text-anchor:middle;fill:#000000;fill-opacity:1;stroke:none;font-family:DejaVu Sans;-inkscape-font-specification:DejaVu Sans"
       x="470.173"
       y="544.16223"
       id="text6448"
       sodipodi:linespacing="125%"><tspan
         sodipodi:role="line"
         id="tspan6450"
         x="470.173"
         y="544.16223">Frustum</tspan></text>
  </g>
</svg>
